<svg width="178" height="156" viewBox="0 0 178 156" fill="none" xmlns="http://www.w3.org/2000/svg">
<g clip-path="url(#clip0_1_143)">
<path opacity="0.33" d="M177.205 85.6529C182.032 112.992 164.203 142.567 140.444 153.193C127.484 158.991 109.55 155.182 73.6748 147.565C36.3103 139.633 17.4348 135.385 8.03088 121.675C-3.40991 104.992 0.168622 84.3621 2.02916 73.6457C7.31818 43.1774 27.5478 25.4967 33.1631 20.7389C42.8597 12.5214 62.249 -3.91344 81.5521 0.851924C95.386 4.26648 94.7821 15.0129 117.938 29.3691C134.228 39.4701 137.927 36.2582 149.822 45.1285C154.075 48.3029 173.116 62.4977 177.205 85.6529Z" fill="#00EF93"/>
<path d="M21.5386 39.9803H26.5914C26.5914 39.1885 26.5914 38.4719 26.5914 37.7552C26.5914 28.8773 26.5914 19.9995 26.5951 11.1217C26.5951 10.435 26.5688 9.72959 26.7114 9.06919C27.0115 7.66585 28.0018 6.91165 29.3897 6.89664C30.7813 6.88163 31.7753 7.63208 32.1017 9.02417C32.2555 9.68081 32.2292 10.39 32.2292 11.0767C32.2367 19.8907 32.233 28.7085 32.233 37.5225C32.233 38.2617 32.233 39.0009 32.233 39.8977H37.2857C37.2857 39.2899 37.2857 38.637 37.2857 37.9841C37.2857 29.0424 37.2857 20.1046 37.2857 11.163C37.2857 10.6639 37.2594 10.1611 37.3007 9.66205C37.4432 8.01856 38.5423 6.90789 40.0352 6.87037C41.5957 6.8291 42.8223 7.98104 42.8935 9.71833C42.9723 11.5907 42.9161 13.4706 42.9198 15.343C42.9198 22.8437 42.9198 30.3482 42.9198 37.849V39.939H47.9725C47.9725 39.1022 47.9725 38.3743 47.9725 37.6464C47.9725 28.7685 47.9725 19.8907 47.98 11.0129C47.98 10.3262 47.9538 9.61702 48.1188 8.96413C48.4677 7.57955 49.5405 6.66025 50.8533 6.95667C51.8286 7.17806 52.7439 8.13488 53.4303 8.97539C53.7829 9.4069 53.6104 10.2999 53.6104 10.9828C53.6179 21.673 53.5991 32.3632 53.6216 43.0571C53.6366 50.329 50.572 55.766 44.2252 59.3869C43.7075 59.6834 43.3099 60.6477 43.3024 61.3043C43.2311 66.8051 43.2612 72.3059 43.2612 77.8105C43.2612 99.1308 43.2687 120.451 43.2536 141.771C43.2536 146.484 40.6579 149.82 36.3479 150.762C31.5878 151.801 26.7301 148.154 26.4076 143.28C26.355 142.469 26.3775 141.655 26.3775 140.841C26.3775 114.519 26.3663 88.1967 26.4 61.8747C26.4 60.4976 26.0925 59.7246 24.7683 58.9742C19.1792 55.8073 16.0696 50.8731 15.9683 44.4567C15.792 33.0198 15.9045 21.5755 15.9195 10.1348C15.9195 8.10111 17.0599 6.85161 18.7478 6.86287C20.4321 6.87788 21.5311 8.12363 21.5349 10.1761C21.5537 19.3654 21.5424 28.5584 21.5424 37.7477C21.5424 38.4231 21.5424 39.1022 21.5424 39.9765L21.5386 39.9803ZM21.6999 45.815C22.619 50.1977 24.9334 53.0906 28.7595 54.7154C31.7678 55.9949 32.0042 56.2463 32.0042 59.5633C32.0042 86.5645 32.0042 113.569 32.0042 140.571C32.0042 141.197 31.9817 141.824 32.0154 142.447C32.1092 144.128 33.1482 145.227 34.6562 145.287C36.1078 145.344 37.3645 144.248 37.5745 142.661C37.6645 141.985 37.6195 141.287 37.6195 140.601C37.6195 113.536 37.6195 86.4707 37.6195 59.4057C37.6195 56.0512 37.7171 55.9986 40.7404 54.7154C44.6265 53.0681 46.9222 50.1151 47.8225 45.8113H21.6999V45.815Z" fill="url(#paint0_linear_1_143)"/>
<path d="M159.954 76.4822C159.954 98.2978 159.957 120.113 159.95 141.929C159.95 146.263 157.617 149.527 153.851 150.574C148.25 152.131 143.1 148.165 143.081 142.192C143.044 131.441 143.07 120.688 143.07 109.937C143.07 107.123 143.798 104.031 142.852 101.577C141.922 99.1571 139.3 97.3898 137.421 95.3335C135.058 92.7482 133.58 89.7239 133.576 86.2155C133.557 72.2159 132.995 58.1749 133.869 44.2241C134.829 28.8511 142.496 16.6938 155.032 7.6921C156.109 6.91913 157.422 6.30751 158.453 7.30937C159.237 8.07107 159.894 9.39187 159.897 10.4688C159.98 32.472 159.957 54.4752 159.957 76.4784L159.954 76.4822ZM154.319 15.5456C153.824 15.9208 153.622 16.0521 153.449 16.2135C145.096 24.0069 139.945 33.6052 139.439 44.9745C138.835 58.5164 139.199 72.0996 139.169 85.664C139.165 88.0992 140.178 90.1441 141.877 91.8552C143.546 93.5437 145.186 95.2697 146.93 96.8757C148.224 98.0652 148.742 99.401 148.734 101.172C148.678 114.489 148.704 127.806 148.704 141.122C148.704 141.685 148.652 142.259 148.749 142.807C149.03 144.357 149.991 145.291 151.577 145.265C153.074 145.239 154.001 144.323 154.263 142.86C154.383 142.192 154.319 141.49 154.323 140.8C154.323 99.8475 154.323 58.8991 154.323 17.947V15.5456H154.319Z" fill="url(#paint1_linear_1_143)"/>
<path d="M127.871 78.9512C127.829 100.996 109.877 118.905 87.8728 118.856C65.8352 118.808 47.9313 100.842 47.9876 78.8386C48.0401 56.7829 65.9815 38.8846 87.9891 38.9371C110.034 38.9897 127.916 56.9292 127.874 78.9549L127.871 78.9512ZM88.0003 44.5768C69.0686 44.5242 53.6404 59.9122 53.6217 78.8686C53.6029 97.7387 68.8548 113.085 87.7603 113.217C106.662 113.344 122.154 97.9751 122.233 79.015C122.311 60.0736 106.962 44.6293 88.0041 44.5768H88.0003Z" fill="url(#paint2_linear_1_143)"/>
<path d="M87.8203 132.635C77.6174 132.653 68.2134 129.899 59.5484 124.564C57.6541 123.397 57.1027 121.903 57.9805 120.384C58.8995 118.785 60.4899 118.541 62.5118 119.798C82.28 132.057 108.204 128.432 123.677 111.112C124.345 110.365 124.96 109.577 125.639 108.842C126.869 107.513 128.418 107.314 129.63 108.283C130.931 109.326 131.179 111.018 129.915 112.429C127.631 114.984 125.354 117.603 122.754 119.821C112.712 128.38 101.028 132.627 87.8203 132.635Z" fill="url(#paint3_linear_1_143)"/>
<path d="M87.974 25.249C102.945 25.3127 115.713 30.6972 126.321 41.2523C127.297 42.2242 128.066 43.2598 127.548 44.7307C126.783 46.907 124.517 47.1359 122.521 45.4811C119.168 42.6969 115.965 39.5938 112.229 37.4363C97.9594 29.1888 83.1239 28.6297 67.992 35.0724C67.3618 35.3425 66.7617 35.684 66.124 35.9354C64.4623 36.592 63.0143 36.0705 62.3279 34.6071C61.6565 33.1737 62.1703 31.6953 63.7833 30.8736C70.2614 27.5603 77.1409 25.6655 84.4105 25.2565C85.5921 25.1889 86.7849 25.249 87.9703 25.249H87.974Z" fill="url(#paint4_linear_1_143)"/>
<path d="M54.8182 115.029C54.822 116.594 53.5129 117.877 51.9562 117.836C50.4295 117.795 49.1466 116.47 49.1429 114.932C49.1354 113.333 50.3882 112.11 51.9937 112.144C53.5354 112.178 54.8182 113.487 54.822 115.029H54.8182Z" fill="url(#paint5_linear_1_143)"/>
<path d="M62.1142 76.94C62.9319 67.4655 67.8758 59.8522 77.3398 55.3082C79.1103 54.4602 80.7833 55.0005 81.466 56.5502C82.1149 58.0286 81.4847 59.5595 79.748 60.3775C73.7875 63.1917 69.9164 67.7319 68.2997 74.1333C67.9658 75.4578 67.827 76.8424 67.722 78.2082C67.542 80.5496 66.5217 81.7766 64.7024 81.6678C62.9319 81.559 62.0091 80.2082 62.1142 76.94Z" fill="url(#paint6_linear_1_143)"/>
<path d="M87.7828 58.6402C86.1811 58.5951 84.9433 57.2856 85.0145 55.7134C85.082 54.2275 86.3387 53.0381 87.8503 53.0306C89.4446 53.023 90.7237 54.2988 90.7049 55.8748C90.6862 57.4582 89.3883 58.6852 87.7791 58.6364L87.7828 58.6402Z" fill="url(#paint7_linear_1_143)"/>
</g>
<defs>
<linearGradient id="paint0_linear_1_143" x1="33.9285" y1="1.62097" x2="39.127" y2="152.81" gradientUnits="userSpaceOnUse">
<stop stop-color="#FC7700"/>
<stop offset="1" stop-color="#C82800"/>
</linearGradient>
<linearGradient id="paint1_linear_1_143" x1="144.994" y1="-2.1951" x2="150.193" y2="148.991" gradientUnits="userSpaceOnUse">
<stop stop-color="#FC7700"/>
<stop offset="1" stop-color="#C82800"/>
</linearGradient>
<linearGradient id="paint2_linear_1_143" x1="85.2133" y1="-0.138854" x2="90.4118" y2="151.047" gradientUnits="userSpaceOnUse">
<stop stop-color="#FC7700"/>
<stop offset="1" stop-color="#C82800"/>
</linearGradient>
<linearGradient id="paint3_linear_1_143" x1="90.1572" y1="-0.311512" x2="95.3557" y2="150.878" gradientUnits="userSpaceOnUse">
<stop stop-color="#FC7700"/>
<stop offset="1" stop-color="#C82800"/>
</linearGradient>
<linearGradient id="paint4_linear_1_143" x1="93.5369" y1="-0.427725" x2="98.7316" y2="150.762" gradientUnits="userSpaceOnUse">
<stop stop-color="#FC7700"/>
<stop offset="1" stop-color="#C82800"/>
</linearGradient>
<linearGradient id="paint5_linear_1_143" x1="48.0663" y1="1.13695" x2="53.2648" y2="152.323" gradientUnits="userSpaceOnUse">
<stop stop-color="#FC7700"/>
<stop offset="1" stop-color="#C82800"/>
</linearGradient>
<linearGradient id="paint6_linear_1_143" x1="69.5976" y1="0.397715" x2="74.7961" y2="151.583" gradientUnits="userSpaceOnUse">
<stop stop-color="#FC7700"/>
<stop offset="1" stop-color="#C82800"/>
</linearGradient>
<linearGradient id="paint7_linear_1_143" x1="85.9373" y1="-0.165157" x2="91.132" y2="151.021" gradientUnits="userSpaceOnUse">
<stop stop-color="#FC7700"/>
<stop offset="1" stop-color="#C82800"/>
</linearGradient>
<clipPath id="clip0_1_143">
<rect width="178" height="156" fill="white"/>
</clipPath>
</defs>
</svg>
