<svg width="165" height="153" viewBox="0 0 165 153" fill="none" xmlns="http://www.w3.org/2000/svg">
<g clip-path="url(#clip0_1_134)">
<path opacity="0.33" d="M164.153 50.1683C157.697 19.4485 117.741 7.36764 110.138 5.06828C105.458 3.65243 42.2319 -14.4246 12.4685 27.6183C-8.64891 57.4472 1.21427 97.5788 19.1278 121.145C23.4823 126.875 45.6985 154.49 77.9517 152.937C105.063 151.632 122.007 130.546 137.886 110.795C153.383 91.5125 168.811 72.3228 164.153 50.1683Z" fill="#00EF93"/>
<path d="M31.9322 47.9761C31.1145 47.9761 30.3487 47.9761 29.5829 47.9761C18.5913 47.9835 7.60347 47.9909 -3.38809 48.002C-4.39808 48.002 -5.25639 47.7321 -5.73364 46.7673C-6.39218 45.4475 -5.68925 44.0021 -4.2427 43.7027C-3.85424 43.6214 -3.44728 43.6103 -3.04772 43.6103C8.94274 43.6103 20.9369 43.6103 32.9274 43.5992C33.3343 43.5992 33.7931 43.492 34.1445 43.2886C38.7136 40.6751 43.2678 38.0356 47.8294 35.4072C54.5775 31.5183 61.3256 27.633 68.0737 23.7404C70.275 22.4724 72.4689 21.1933 74.6701 19.9254C74.9698 19.7516 75.2843 19.6 75.5839 19.3302C75.3324 19.3154 75.0808 19.2895 74.8329 19.2895C68.6361 19.2858 62.4392 19.2821 56.2423 19.2784C55.532 19.2784 54.8587 19.1712 54.3148 18.6611C53.7118 18.0955 53.3862 17.4338 53.6119 16.5946C53.8487 15.7111 54.4221 15.1566 55.3137 14.9607C55.6097 14.8941 55.9242 14.8756 56.2312 14.8756C65.2953 14.8682 74.3594 14.8756 83.4234 14.8608C84.241 14.8608 84.9625 15.0937 85.658 15.493C91.6144 18.9383 97.5708 22.38 103.531 25.8179C109.502 29.2633 115.477 32.7086 121.452 36.154C125.64 38.5679 129.806 41.0226 134.027 43.3737C135.499 44.1943 136.073 45.2701 136.069 46.9447C136.032 65.4875 136.039 84.0339 136.054 102.577C136.054 103.882 135.61 104.824 134.434 105.49C130.627 107.641 126.853 109.841 123.069 112.026C118.255 114.802 113.446 117.582 108.633 120.358C103.194 123.496 97.752 126.628 92.3136 129.766C90.153 131.012 87.9999 132.265 85.8393 133.515C85.5729 133.67 85.2991 133.81 85.0217 133.943C84.3076 134.291 83.5899 134.295 82.8944 133.903C81.3664 133.038 79.8459 132.165 78.3253 131.289C73.2051 128.339 68.0811 125.389 62.9645 122.435C56.8602 118.913 50.7558 115.382 44.6477 111.863C41.1664 109.856 37.6777 107.863 34.2037 105.848C33.745 105.582 33.2862 105.482 32.7609 105.482C26.7971 105.497 20.8296 105.497 14.8658 105.497C8.86875 105.497 2.87167 105.497 -3.12172 105.497C-3.36959 105.497 -3.61746 105.497 -3.85794 105.464C-5.1639 105.301 -6.01482 104.407 -5.99262 103.224C-5.97042 102.048 -5.02332 101.161 -3.69886 101.083C-3.37699 101.065 -3.05142 101.076 -2.72956 101.076C8.69116 101.076 20.1156 101.076 31.5363 101.072C31.6584 101.072 31.7768 101.072 31.9396 101.072V76.7736H31.3698C24.2185 76.7736 17.0671 76.7736 9.91204 76.7736C9.13512 76.7736 8.38779 76.6405 7.84765 76.0342C7.31861 75.4427 7.05593 74.7441 7.326 73.9456C7.59978 73.1397 8.15842 72.6185 8.99453 72.4447C9.36819 72.3671 9.75665 72.3412 10.1414 72.3412C17.2151 72.3338 24.2924 72.3375 31.3661 72.3375C31.5511 72.3375 31.7324 72.3375 31.9396 72.3375V47.9687L31.9322 47.9761ZM36.4272 49.6359C36.4013 49.7246 36.3495 49.8097 36.3495 49.8947C36.3532 50.4011 36.3828 50.9113 36.3828 51.4177C36.3828 67.8201 36.3828 84.2225 36.3828 100.625C36.3828 100.839 36.4087 101.061 36.3643 101.272C36.2422 101.86 36.4864 102.185 36.9969 102.481C42.3281 105.53 47.6444 108.602 52.9645 111.671C59.0171 115.16 65.0696 118.654 71.1222 122.147C74.6146 124.162 78.1034 126.184 81.5958 128.199C81.6254 128.217 81.6809 128.199 81.7549 128.195V127.315C81.7549 110.606 81.7549 93.8968 81.7549 77.1839C81.7549 76.9695 81.7253 76.744 81.7734 76.5407C81.8955 76.0157 81.6698 75.7311 81.2185 75.476C78.6509 74.0158 76.0945 72.5297 73.538 71.051C67.7925 67.7351 62.0507 64.4154 56.3052 61.0995C49.694 57.2881 43.0828 53.4805 36.4235 49.6433L36.4272 49.6359ZM131.592 49.5694C131.1 49.8688 130.712 50.1202 130.312 50.3494C126.605 52.4861 122.909 54.6413 119.184 56.7373C118.496 57.1255 118.281 57.5543 118.285 58.3232C118.315 64.9921 118.296 71.661 118.303 78.3299C118.303 79.4019 117.874 80.1709 116.935 80.7069C114.7 81.9749 112.484 83.2798 110.257 84.5626C107.737 86.0154 105.203 87.4423 102.691 88.9099C101.448 89.6382 99.6499 88.7694 99.4909 87.3129C99.4539 86.9617 99.4058 86.6105 99.4058 86.2557C99.4021 80.4481 99.4058 74.6443 99.4058 68.8367C99.4058 68.6593 99.4058 68.4781 99.4058 68.2157C99.0691 68.3931 98.7953 68.5225 98.5364 68.6703C94.6037 70.9364 90.6747 73.2099 86.7309 75.4575C86.3091 75.6978 86.1648 75.9603 86.1648 76.4372C86.1907 81.2096 86.1981 85.9858 86.1981 90.7583C86.1981 103.094 86.187 115.43 86.1833 127.766C86.1833 127.925 86.1833 128.08 86.1833 128.313C86.6273 128.043 86.9751 127.822 87.3339 127.618C92.2692 124.776 97.2045 121.94 102.14 119.097C108.806 115.253 115.47 111.401 122.133 107.556C125.077 105.856 128.026 104.155 130.982 102.477C131.437 102.218 131.607 101.922 131.607 101.383C131.592 84.3482 131.592 67.3174 131.592 50.2828V49.5731V49.5694ZM129.458 45.8357C129.092 45.6102 128.825 45.4364 128.551 45.2775C124.5 42.9412 120.445 40.6048 116.394 38.2685C110.275 34.7381 104.16 31.2114 98.0443 27.6774C93.4864 25.0453 88.9322 22.4095 84.3853 19.7627C84.0894 19.5926 83.8748 19.6074 83.5899 19.7738C80.0013 21.8661 76.4016 23.9437 72.8055 26.0249C72.0545 26.4575 71.3035 26.8937 70.4452 27.389C71.3146 27.8918 72.0804 28.3428 72.8536 28.7864C82.5503 34.3315 92.2507 39.8766 101.947 45.418C106.516 48.0278 111.093 50.6266 115.658 53.2439C116.013 53.4472 116.28 53.4398 116.631 53.2365C120.316 51.0961 124.012 48.9668 127.704 46.8375C128.248 46.5233 128.796 46.2164 129.461 45.8394L129.458 45.8357ZM38.5101 45.7987C38.684 45.917 38.8023 46.0094 38.9318 46.0834C39.8271 46.5972 40.7261 47.1037 41.6178 47.6175C47.1228 50.793 52.6278 53.9759 58.1365 57.1514C64.1632 60.6263 70.1936 64.0975 76.2203 67.5761C78.5658 68.9291 80.9151 70.2821 83.2458 71.6573C83.7416 71.9493 84.1744 72.0565 84.6776 71.6832C85.0328 71.417 85.436 71.2137 85.8245 70.9919C89.3465 68.9624 92.8685 66.9366 96.3869 64.9034C96.6718 64.7407 96.9381 64.5411 97.2785 64.3156C96.9122 64.1271 96.6385 63.994 96.3758 63.8461C91.4331 61.0181 86.4941 58.1791 81.5514 55.3548C76.6864 52.5748 71.8177 49.806 66.9527 47.026C62.0359 44.2165 57.1154 41.407 52.2098 38.5827C51.7806 38.335 51.4402 38.3202 51.0222 38.5716C49.7939 39.3036 48.5508 40.0133 47.3078 40.7268C44.4036 42.4014 41.4957 44.076 38.5138 45.7987H38.5101ZM111.707 56.0534C111.341 55.8168 111.056 55.6135 110.749 55.4398C107.848 53.7836 104.944 52.1349 102.044 50.4788C96.5793 47.355 91.1186 44.2239 85.6506 41.1002C79.3686 37.5144 73.0793 33.9396 66.8121 30.3316C66.2535 30.01 65.9057 29.973 65.3249 30.3168C62.3615 32.0765 59.3537 33.7622 56.3607 35.4738C56.246 35.5403 56.1387 35.6142 55.9612 35.7251C56.1646 35.8471 56.3015 35.9359 56.4458 36.0172C59.9235 37.9986 63.4011 39.9764 66.8787 41.9615C75.6579 46.978 84.4408 51.9944 93.2163 57.0183C95.9688 58.5931 98.7103 60.1864 101.466 61.7538C101.581 61.8203 101.814 61.7723 101.947 61.6983C103.257 60.9516 104.559 60.1901 105.865 59.4322C107.782 58.3232 109.698 57.2142 111.707 56.0497V56.0534ZM113.912 59.813C113.542 60.0274 113.268 60.1901 112.991 60.349C110.072 62.0273 107.153 63.7093 104.226 65.3803C103.956 65.5355 103.838 65.7019 103.842 66.0272C103.853 71.5094 103.849 76.988 103.849 82.4702C103.849 82.6809 103.849 82.8916 103.849 83.1911C104.223 83.0025 104.522 82.8621 104.811 82.6957C106.531 81.705 108.248 80.7106 109.964 79.7125C111.122 79.0397 112.28 78.3706 113.435 77.6904C113.708 77.5277 113.942 77.3761 113.942 76.9547C113.919 71.5353 113.919 66.1159 113.916 60.7002C113.916 60.4414 113.916 60.1827 113.916 59.813H113.912Z" fill="url(#paint0_linear_1_134)"/>
<path d="M24.2148 14.8718C28.9614 14.8718 33.708 14.8718 38.4546 14.8718C38.7616 14.8718 39.0724 14.8866 39.3758 14.9347C40.5856 15.1343 41.2441 15.9254 41.2256 17.1416C41.2108 18.2174 40.4413 19.0676 39.3166 19.2229C38.9207 19.2783 38.5175 19.2894 38.1179 19.2894C28.9651 19.2894 19.8122 19.2894 10.6557 19.2857C10.1636 19.2857 9.66786 19.2783 9.17951 19.2192C8.06962 19.0824 7.20391 18.1028 7.21501 17.0492C7.22611 15.955 8.00303 15.0899 9.14621 14.9273C9.47917 14.8792 9.82324 14.8718 10.1599 14.8718C14.8436 14.8718 19.531 14.8718 24.2148 14.8718Z" fill="url(#paint1_linear_1_134)"/>
<path d="M67.0823 76.3301C67.0786 77.8716 65.3804 78.9325 63.9561 78.1858C62.6353 77.4908 61.3664 76.7071 60.0715 75.9604C54.2335 72.5964 48.3992 69.2286 42.5612 65.8609C42.2023 65.6539 41.8398 65.4432 41.5068 65.1992C40.6041 64.5412 40.3488 63.3546 40.8631 62.4082C41.2626 61.6725 42.502 60.9258 43.6156 61.5062C44.3259 61.8722 45.0288 62.2566 45.7207 62.6559C52.3171 66.4598 58.9098 70.2711 65.5136 74.064C66.3978 74.5704 67.0453 75.1915 67.0823 76.3264V76.3301Z" fill="url(#paint2_linear_1_134)"/>
<path d="M42.8165 71.4207C43.2678 71.5981 43.7488 71.7238 44.1668 71.9604C47.6149 73.927 51.0481 75.9159 54.4851 77.901C55.0733 78.2411 55.6208 78.6256 55.8687 79.3206C56.1647 80.1486 56.0093 80.8917 55.4359 81.5053C54.8513 82.1301 54.0892 82.3777 53.2457 82.0894C52.8276 81.9452 52.4244 81.7382 52.0396 81.5164C48.8505 79.6865 45.6652 77.8493 42.4835 76.012C42.1246 75.805 41.7658 75.5906 41.4365 75.3355C40.704 74.7699 40.4228 73.8087 40.7151 72.9881C41.0518 72.0528 41.8102 71.5057 42.8128 71.4207H42.8165Z" fill="url(#paint3_linear_1_134)"/>
</g>
<defs>
<linearGradient id="paint0_linear_1_134" x1="62.9164" y1="13.615" x2="68.0324" y2="162.564" gradientUnits="userSpaceOnUse">
<stop stop-color="#FC7700"/>
<stop offset="1" stop-color="#C82800"/>
</linearGradient>
<linearGradient id="paint1_linear_1_134" x1="24.1482" y1="14.9458" x2="29.2641" y2="163.894" gradientUnits="userSpaceOnUse">
<stop stop-color="#FC7700"/>
<stop offset="1" stop-color="#C82800"/>
</linearGradient>
<linearGradient id="paint2_linear_1_134" x1="51.9212" y1="13.9922" x2="57.0372" y2="162.941" gradientUnits="userSpaceOnUse">
<stop stop-color="#FC7700"/>
<stop offset="1" stop-color="#C82800"/>
</linearGradient>
<linearGradient id="paint3_linear_1_134" x1="46.1535" y1="14.1917" x2="51.2695" y2="163.14" gradientUnits="userSpaceOnUse">
<stop stop-color="#FC7700"/>
<stop offset="1" stop-color="#C82800"/>
</linearGradient>
<clipPath id="clip0_1_134">
<rect width="171" height="153" fill="white" transform="translate(-6)"/>
</clipPath>
</defs>
</svg>
