<svg width="134" height="166" viewBox="0 0 134 166" fill="none" xmlns="http://www.w3.org/2000/svg">
<g clip-path="url(#clip0_1_111)">
<path opacity="0.33" d="M117.415 149.845C83.435 185.665 4.83791 154.471 0.220364 128.051C-3.41666 107.248 38.8367 89.4251 33.0068 60.0774C30.4453 47.1779 20.9974 44.1662 22.2934 33.0828C24.2582 16.3339 48.0376 4.52707 65.7971 1.21461C94.8667 -4.20717 126.524 9.64044 126.828 21.0551C127.083 30.6118 105.219 33.5092 104.429 46.424C103.805 56.6051 117.039 60.5838 125.529 73.0912C139.647 93.8874 135.554 130.717 117.411 149.845H117.415Z" fill="#00EF93"/>
<path d="M44.9517 131.284C44.9973 131.87 45.0429 132.399 45.0771 132.933C45.3051 136.477 45.5294 140.022 45.7498 143.567C45.7802 144.024 45.8562 144.492 45.803 144.941C45.689 145.927 44.9327 146.616 43.9332 146.723C43.0363 146.822 42.0938 146.278 41.8429 145.352C41.6187 144.538 41.5351 143.673 41.4781 142.824C41.2653 139.615 41.0905 136.397 40.8928 133.188C40.8472 132.445 40.7446 131.703 40.7104 130.96C40.6952 130.618 40.4748 130.595 40.2468 130.541C39.0762 130.279 37.8981 130.039 36.7351 129.742C35.956 129.544 35.2074 129.224 34.4283 129.018C33.0449 128.657 32.3608 127.766 32.1594 126.368C31.8364 124.126 31.4107 121.902 31.0877 119.66C30.7988 117.653 30.6354 115.628 30.3428 113.621C29.7993 109.924 29.7841 106.193 29.4763 102.481C29.1038 97.9994 29.062 93.5142 29.1266 89.0253C29.176 85.6709 29.8905 82.4879 31.8478 79.678C33.8354 76.8263 36.4501 74.7817 39.7907 73.8146C42.2762 73.095 44.8149 72.5581 47.3308 71.9413C50.0785 71.2674 52.8224 70.5935 55.574 69.931C56.2656 69.7635 56.9649 69.6416 57.6604 69.4855C57.8732 69.4398 58.0747 69.3485 58.3255 69.2609C57.1815 67.2201 56.9459 65.1717 58.029 63.2033C56.9801 61.7717 55.897 60.4429 54.9849 59.0075C53.5407 56.7383 52.5678 54.2787 52.3816 51.5487C52.3702 51.3926 52.2068 51.1642 52.0623 51.1147C48.7902 49.9572 46.7531 47.5586 45.385 44.486C44.4386 42.3576 43.8762 40.1303 44.051 37.7963C44.241 35.2606 45.2063 33.0675 47.327 31.5179C48.4215 30.7183 49.6681 30.3566 51.0058 30.2728C51.4125 30.2462 51.8229 30.269 52.298 30.269V29.6903C52.298 25.8524 52.4272 22.0069 52.2676 18.1767C52.0661 13.3336 54.0766 9.62517 57.6756 6.64395C58.7055 5.79109 59.8495 5.06387 60.9972 4.37473C62.2171 3.6437 63.6461 4.72882 63.8513 5.69971C64.0528 6.65538 63.7791 7.44351 62.9278 8.00321C61.5217 8.9246 60.1383 9.86884 58.9906 11.1177C57.8086 12.4008 56.9003 13.8248 56.6229 15.5838C56.5583 16.0064 56.5203 16.4367 56.5203 16.8631C56.5127 19.2732 56.5203 21.6871 56.5203 24.0972C56.5203 24.1391 56.5393 24.181 56.5887 24.3942C56.9079 24.0287 57.1663 23.7431 57.4172 23.4499C58.8841 21.7328 59.6822 19.7034 60.1877 17.5294C60.3055 17.0268 60.4081 16.4709 60.7008 16.0711C61.267 15.2868 62.0917 15.0812 63.0646 15.2792C65.9454 15.8655 68.8261 16.4367 71.7221 16.9507C74.314 17.4114 76.8945 17.1677 79.4522 16.6194C81.569 16.1663 83.6859 15.7171 85.8065 15.2792C87.1101 15.0089 88.2236 15.6637 88.501 16.9697C88.8545 18.6373 89.2915 20.2593 90.1466 21.748C90.7965 22.8826 91.6212 23.8611 92.6625 24.8092C92.6891 24.516 92.7195 24.318 92.7195 24.12C92.7195 21.946 92.6283 19.7682 92.7271 17.6017C92.8602 14.7271 91.6972 12.4731 89.6944 10.558C87.874 8.81799 85.7457 7.56154 83.4198 6.62111C80.1287 5.28851 76.7083 4.68694 73.17 4.87731C71.9463 4.94584 70.7339 5.2314 69.5178 5.44842C68.3359 5.66164 67.3021 5.01437 67.0133 3.83407C66.7511 2.76799 67.42 1.61054 68.5335 1.34021C69.5292 1.10034 70.5477 0.925199 71.5662 0.784324C75.0703 0.296973 78.5249 0.662486 81.8997 1.62577C85.4569 2.63854 88.7557 4.22624 91.6174 6.63253C93.9699 8.61239 95.7903 10.973 96.6036 13.9885C96.8316 14.8337 96.9342 15.7361 96.9418 16.6156C96.976 21.0589 96.957 25.4983 96.957 29.9416C96.957 30.033 96.9646 30.1244 96.976 30.3147C97.6069 30.3147 98.2264 30.25 98.8269 30.3262C102.658 30.8021 104.68 34.0879 105.01 36.6427C105.603 41.204 104.25 45.1523 101.217 48.5523C100.149 49.7478 98.7927 50.5245 97.2877 51.0424C97.0293 51.1337 96.9038 51.2518 96.8772 51.5335C96.6188 54.3739 95.5585 56.9401 94.0497 59.3159C93.339 60.4353 92.4649 61.4481 91.6706 62.5179C91.5718 62.6474 91.4616 62.8149 91.4616 62.9672C91.4502 65.0918 91.4578 67.2201 91.4616 69.3447C91.4616 69.3751 91.4806 69.4018 91.4844 69.417C92.9172 69.7673 94.3461 70.0985 95.7675 70.4641C96.5618 70.6696 97.0825 71.176 97.2953 71.9946C97.6677 73.4491 96.4744 74.8388 95.0036 74.538C92.883 74.104 90.7775 73.5899 88.6797 73.0607C87.798 72.8399 87.3343 72.1203 87.2773 71.2674C87.1937 70.0224 87.2507 68.7659 87.2469 67.5133C87.2469 67.281 87.2469 67.0488 87.2469 66.7252C86.9201 66.9422 86.6464 67.1173 86.3804 67.3039C85.4721 67.9359 84.5714 68.5832 83.6517 69.2C83.378 69.3827 83.283 69.5883 83.283 69.9044C83.2944 71.9337 83.2906 73.9669 83.3134 75.9962C83.3134 76.1485 83.4578 76.4036 83.5795 76.4341C86.8288 77.2413 90.0858 78.0218 93.3428 78.8175C96.8278 79.6666 100.324 80.4662 103.786 81.4028C106.838 82.229 109.035 84.1708 110.221 87.1177C110.62 88.1115 110.787 89.227 110.912 90.3045C111.289 93.5637 111.11 96.8305 110.874 100.09C110.737 101.971 110.677 103.863 110.426 105.732C110.308 106.619 110.604 107.088 111.243 107.575C112.087 108.215 112.866 108.942 113.679 109.623C113.804 109.73 113.956 109.806 114.124 109.917C114.367 108.828 114.648 107.807 114.812 106.768C115.108 104.906 115.347 103.037 115.587 101.167C116.104 97.097 116.313 93.0116 115.944 88.9225C115.803 87.369 115.583 85.7813 115.104 84.3078C114.298 81.8406 112.619 80.0131 110.361 78.7109C109.001 77.9266 107.507 77.6296 106.01 77.2984C104.946 77.0623 103.893 76.7806 102.844 76.4874C101.719 76.1714 101.115 75.071 101.388 73.9136C101.643 72.8399 102.707 72.0632 103.805 72.3792C106.112 73.0379 108.526 73.2892 110.749 74.2562C114.489 75.8858 117.194 78.532 118.832 82.2823C119.509 83.8319 119.745 85.4577 119.969 87.1139C120.47 90.8452 120.467 94.5841 120.125 98.3154C119.862 101.171 119.555 104.027 119.076 106.852C118.646 109.372 118.057 111.877 117.358 114.341C116.111 118.727 114.485 122.965 111.893 126.764C110.996 128.078 109.989 129.296 108.803 130.363C108.685 130.465 108.575 130.64 108.564 130.789C108.423 132.75 108.309 134.711 108.176 136.671C108.043 138.602 107.902 140.528 107.754 142.459C107.69 143.312 107.655 144.172 107.515 145.013C107.336 146.061 106.337 146.833 105.394 146.75C104.243 146.647 103.418 145.817 103.429 144.64C103.437 143.532 103.562 142.428 103.631 141.32C103.756 139.245 103.874 137.174 103.995 135.099C104.056 134.071 104.117 133.043 104.204 132.015C104.231 131.684 104.155 131.569 103.809 131.55C100.134 131.371 96.6226 130.503 93.2934 128.935C92.7309 128.672 92.1951 128.63 91.5984 128.695C89.6944 128.904 87.7866 129.068 85.8825 129.262C83.302 129.525 80.7253 129.822 78.141 130.073C75.7771 130.302 73.4133 130.522 71.0456 130.686C66.8613 130.975 62.677 131.284 58.4889 131.455C55.2813 131.588 52.0661 131.55 48.8548 131.535C47.593 131.528 46.3313 131.375 44.9707 131.284H44.9517ZM81.3106 116.26C81.2346 116.043 81.2042 115.921 81.151 115.811C80.5087 114.486 79.8436 113.172 79.2242 111.839C79.0227 111.405 78.7605 111.261 78.2778 111.261C66.5307 111.276 54.7835 111.272 43.0325 111.272C42.527 111.272 42.0178 111.287 41.5123 111.264C40.1669 111.207 39.365 110.484 39.175 109.163C39.0952 108.599 39.0382 108.028 38.9964 107.461C38.7494 104.046 38.4415 100.634 38.2933 97.215C38.1869 94.7669 38.1413 92.292 38.3503 89.8553C38.719 85.5605 41.7745 82.2252 45.9702 81.2429C47.7222 80.8317 49.4818 80.4433 51.2338 80.0207C54.0728 79.3315 56.9079 78.6157 59.7507 77.9304C60.5449 77.74 61.3506 77.603 62.2133 77.4316C62.1411 77.2375 62.0993 77.0928 62.0347 76.9557C61.4989 75.8249 60.9402 74.7055 60.4347 73.5633C60.2827 73.2244 60.1269 73.1673 59.7887 73.2511C58.3635 73.6166 56.9345 73.9555 55.5056 74.3019C51.3289 75.3185 47.1522 76.3351 42.9793 77.3517C41.7859 77.641 40.5736 77.839 39.4563 78.4216C36.7427 79.8379 34.8729 81.9396 33.938 84.8828C33.3679 86.6837 33.3679 88.5417 33.3185 90.3921C33.1551 96.4764 33.7062 102.53 34.1242 108.588C34.2762 110.766 34.5803 112.936 34.8045 115.11C34.9261 116.271 34.9147 116.264 36.0739 116.264C43.3745 116.26 50.6714 116.256 57.972 116.256C58.3977 116.256 58.8309 116.267 59.249 116.328C60.2409 116.469 60.9326 117.219 61.0352 118.209C61.1226 119.058 60.5031 120.018 59.6214 120.303C59.2072 120.437 58.7549 120.509 58.3217 120.513C50.9108 120.524 43.5037 120.52 36.0929 120.52C35.9142 120.52 35.7318 120.52 35.4772 120.52C35.6786 121.621 35.8572 122.633 36.0511 123.639C36.1537 124.175 36.1233 124.872 36.4501 125.2C36.7997 125.55 37.4952 125.565 38.0425 125.71C42.413 126.875 46.8823 127.256 51.3821 127.37C55.4561 127.473 59.5188 127.218 63.5739 126.947C68.7501 126.601 73.9225 126.144 79.0949 125.71C81.2688 125.527 83.4389 125.28 85.6127 125.055C86.1372 125.002 86.6616 124.922 87.1215 124.861C86.065 123.532 85.016 122.245 84.0089 120.931C83.7809 120.635 83.5795 120.505 83.1994 120.505C78.1638 120.52 73.1282 120.52 68.0964 120.505C67.6024 120.505 67.0779 120.417 66.6219 120.235C65.4285 119.755 65.0333 118.274 65.744 117.208C66.2912 116.389 67.1121 116.248 67.9938 116.248C71.9995 116.248 76.0052 116.252 80.0108 116.256C80.4213 116.256 80.8279 116.256 81.3182 116.256L81.3106 116.26ZM76.7881 107.004C76.5676 106.509 76.389 106.056 76.1762 105.622C73.6945 100.581 71.209 95.5398 68.7273 90.4987C67.2793 87.5594 65.8276 84.6239 64.3872 81.6807C64.2086 81.3152 64.0186 81.2314 63.6119 81.3342C60.887 82.0234 58.1507 82.6821 55.4181 83.3484C52.412 84.0832 49.402 84.818 46.3959 85.5529C44.8833 85.9222 43.8306 86.8702 43.1161 88.2219C42.5004 89.3832 42.4472 90.651 42.4168 91.9227C42.3294 95.5283 42.641 99.1149 42.9109 102.705C43.0173 104.126 43.1427 105.542 43.2643 107.015H48.4937C48.4937 106.844 48.4937 106.657 48.4937 106.471C48.4937 101.19 48.4937 95.9053 48.4937 90.6244C48.4937 90.4645 48.4785 90.3046 48.4975 90.1484C48.6115 89.2385 48.9156 88.4351 49.8505 88.081C50.698 87.7612 51.6215 88.0201 52.1954 88.6635C52.6628 89.1928 52.7084 89.8362 52.7084 90.4949C52.7084 95.9814 52.7084 101.468 52.7084 107.004H76.7881ZM83.0284 64.5663C85.2365 62.9786 87.2887 61.2767 89.0103 59.1941C90.4887 57.4084 91.7048 55.4704 92.3129 53.2126C92.7955 51.4155 92.7081 49.5651 92.6891 47.7299C92.6891 47.6918 92.6435 47.6576 92.6169 47.6157C92.5599 47.6233 92.5105 47.6195 92.4725 47.6385C88.8811 49.1386 85.2365 49.2909 81.5424 48.0726C80.3339 47.6728 79.2812 47.0141 78.3919 46.1041C77.2061 44.8857 76.5106 43.4237 76.2294 41.7484C76.2028 41.5961 76.0318 41.3486 75.9216 41.3448C74.9905 41.3106 74.0593 41.3258 73.1168 41.3258C73.0826 41.4629 73.0484 41.5695 73.0294 41.6761C72.5658 44.3451 71.2394 46.462 68.7653 47.5966C64.9915 49.329 61.1112 49.3024 57.2348 47.8403C57.0029 47.7527 56.7749 47.6652 56.5735 47.589C56.068 52.5196 57.6452 56.6583 61.0998 60.1155C61.1606 60.085 61.2176 60.0583 61.2746 60.0279C63.7791 58.6839 66.447 57.93 69.2898 57.7853C72.2389 57.6368 75.0056 58.3412 77.6242 59.6395C79.8018 60.7208 81.8161 62.0268 82.8916 64.3645C82.9182 64.4179 82.9638 64.4635 83.036 64.5625L83.0284 64.5663ZM92.7005 36.0183C92.6549 36.0944 92.6853 36.0678 92.6853 36.0411C92.6853 34.0422 92.6929 32.0471 92.6853 30.0482C92.6853 29.9378 92.5751 29.7855 92.4763 29.7322C90.1466 28.4529 88.3034 26.6672 86.8897 24.4246C86.0688 23.1187 85.4455 21.7176 84.9742 20.2479C84.9058 20.0309 84.8412 19.8748 84.5562 19.9319C83.1918 20.206 81.8313 20.4992 80.4593 20.72C78.5553 21.0208 76.6474 21.432 74.7358 21.4891C71.6537 21.5805 68.6627 20.7276 65.6413 20.225C65.0713 20.1299 64.5126 19.9776 63.9387 19.8519C63.8855 19.9966 63.8513 20.0842 63.8209 20.1717C62.5706 24.0591 60.3853 27.2459 56.8547 29.4009C56.5583 29.5799 56.4937 29.7893 56.4937 30.0977C56.5013 32.0166 56.4937 33.9356 56.4937 35.8545C56.4937 35.9573 56.5241 36.0563 56.5279 36.0563C59.2376 35.9307 61.8941 35.805 64.5696 35.6794C64.486 35.6261 64.4062 35.5652 64.315 35.5195C63.4219 35.0778 62.525 34.6476 61.6357 34.1983C60.5905 33.6691 60.1573 32.485 60.6134 31.4531C61.0694 30.4251 62.297 29.953 63.3725 30.4175C64.0224 30.6993 64.657 31.0267 65.2955 31.3427C67.3515 32.3593 69.4038 33.3797 71.4598 34.3925C72.4594 34.8836 73.1472 35.569 73.018 36.795C73.0104 36.8521 73.0408 36.913 73.056 36.9853H76.2218C76.2294 36.8521 76.2408 36.7569 76.237 36.6617C76.2028 35.5804 76.7197 34.8646 77.6888 34.4344C78.2094 34.2021 78.7149 33.9432 79.228 33.6919C81.398 32.6182 83.5567 31.5331 85.7381 30.4823C86.0954 30.3109 86.5286 30.1967 86.9163 30.2195C87.798 30.2767 88.6037 31.0458 88.7823 31.8834C88.9647 32.7324 88.5771 33.6386 87.7562 34.1031C86.9315 34.5676 86.0688 34.975 85.2213 35.3938C85.0122 35.4966 84.7766 35.5576 84.5562 35.6337C84.5638 35.6604 84.5752 35.6832 84.5828 35.7099C87.2735 35.8127 89.9642 35.9155 92.7119 36.0183H92.7005ZM80.045 97.1846C79.3306 97.5691 78.6427 97.9499 77.9396 98.3116C77.3771 98.6009 77.3581 98.5933 77.647 99.1835C78.6579 101.243 79.684 103.295 80.6987 105.355C82.5495 109.102 84.3358 112.879 86.2588 116.591C89.1129 122.097 93.6925 125.417 99.701 126.719C101.594 127.13 103.555 127.221 105.489 127.427C105.683 127.446 105.938 127.294 106.105 127.149C107.511 125.927 108.488 124.366 109.495 122.828C109.654 122.588 109.54 122.473 109.362 122.321C101.616 115.685 93.8711 109.045 86.1296 102.405C84.1001 100.665 82.0707 98.9208 80.045 97.1846ZM62.5022 68.3509C63.5131 67.8864 64.3986 67.4333 65.3183 67.064C67.3743 66.2302 69.495 66.0855 71.6423 66.6376C72.7938 66.9346 73.3867 67.9245 73.1852 69.0667C72.9914 70.1709 72.0983 70.841 70.9202 70.7686C70.6845 70.7534 70.4451 70.7382 70.2095 70.7077C68.3777 70.4831 66.6523 70.7344 65.0865 71.7928C64.4328 72.2345 64.4062 72.2193 64.7672 72.9503C67.0361 77.5649 69.3126 82.1757 71.5662 86.7979C71.7753 87.2281 71.9615 87.2776 72.3529 87.0606C74.4774 85.8727 76.6094 84.6962 78.7491 83.5311C79.0189 83.3865 79.0911 83.2037 79.0797 82.9219C79.0531 82.3051 79.0379 81.6845 79.0379 81.0677C79.0379 76.3579 79.0303 71.6482 79.0455 66.9384C79.0455 66.0474 78.7681 65.3278 78.0346 64.8062C77.7762 64.6235 77.5329 64.4217 77.2669 64.2503C74.3216 62.3809 71.1558 61.5851 67.6746 62.2514C65.953 62.5789 64.296 63.051 62.7948 63.9876C61.7687 64.6273 61.3316 65.5106 61.6661 66.55C61.8751 67.1858 62.2323 67.776 62.506 68.3471L62.5022 68.3509ZM106.344 103.372C106.39 103.067 106.439 102.865 106.451 102.663C106.568 100.653 106.705 98.6466 106.793 96.6363C106.891 94.3861 106.998 92.1283 106.633 89.8972C106.268 87.6584 104.995 86.1544 102.787 85.5453C101.248 85.1226 99.6896 84.7838 98.139 84.3954C94.0915 83.3826 90.0516 82.3623 86.0042 81.3571C85.1262 81.1401 84.2331 80.9687 83.2906 80.7669C83.2906 81.4942 83.3362 82.1452 83.2754 82.7849C83.2184 83.3903 83.4464 83.7786 83.8949 84.1632C86.7604 86.5885 89.607 89.0367 92.4573 91.4772C93.7533 92.589 95.0492 93.697 96.4098 94.8658C96.4288 94.5651 96.4554 94.3176 96.4592 94.0739C96.4668 92.7261 96.4478 91.3782 96.4782 90.0304C96.5086 88.8577 97.3637 88.0125 98.4886 87.9744C99.6288 87.9325 100.499 88.6978 100.64 89.8781C100.67 90.1446 100.685 90.415 100.685 90.6853C100.685 93.1258 100.685 95.5702 100.666 98.0108C100.666 98.3649 100.757 98.6086 101.027 98.8294C101.689 99.3738 102.331 99.9373 102.981 100.493C104.071 101.43 105.166 102.363 106.34 103.372H106.344ZM83.9861 95.0638C93.1756 102.938 102.323 110.777 111.509 118.647C111.999 117.307 112.451 116.092 112.873 114.87C112.919 114.733 112.832 114.466 112.714 114.367C108.685 110.891 104.645 107.423 100.605 103.958C96.5276 100.463 92.4421 96.979 88.3756 93.4723C87.9728 93.1258 87.6573 93.0954 87.2051 93.3505C86.1866 93.9216 85.1452 94.4508 83.9823 95.0638H83.9861ZM80.1857 40.3892C80.3301 40.9489 80.4251 41.3829 80.5543 41.8017C80.8849 42.8754 81.5918 43.6369 82.637 43.9834C83.4389 44.2461 84.2864 44.4289 85.1262 44.505C86.768 44.6497 88.4212 44.6535 90.0098 44.1014C91.4084 43.6179 92.2939 42.6774 92.5143 41.1659C92.6321 40.3701 92.6473 40.3701 91.8492 40.2826C88.8051 39.9361 85.7495 40.0541 82.694 40.1227C81.8807 40.1417 81.0712 40.2902 80.1819 40.3854L80.1857 40.3892ZM62.8062 39.9475C62.8062 39.9932 62.8024 40.0427 62.7986 40.0884C61.7079 40.0884 60.6134 40.0541 59.5226 40.0998C58.6561 40.1379 57.7934 40.2711 56.9307 40.3701C56.7141 40.393 56.6115 40.4767 56.6419 40.7433C56.8395 42.5823 57.8428 43.8349 59.6252 44.2461C61.7041 44.7258 63.8133 44.7373 65.8884 44.2537C67.2831 43.9301 68.3701 43.1419 68.7121 41.6228C68.7729 41.3601 68.7881 41.0859 68.8717 40.8308C68.9781 40.492 68.8717 40.3816 68.5297 40.3587C66.6219 40.2293 64.7178 40.0846 62.81 39.9437L62.8062 39.9475ZM84.4232 90.0799C83.2906 89.1204 82.2075 88.199 81.113 87.2929C81.0256 87.2205 80.8089 87.2129 80.7025 87.2738C78.6047 88.4084 76.5144 89.5583 74.4242 90.7119C74.1924 90.8376 73.9833 91.0013 73.7325 91.165C74.3482 92.4215 74.941 93.6399 75.5415 94.8697C78.4907 93.2781 81.4246 91.6981 84.427 90.0837L84.4232 90.0799ZM52.2638 46.5039V34.6019C50.9906 34.3201 49.8581 34.4953 49.1056 35.5956C48.7256 36.1515 48.4367 36.8407 48.3303 37.5032C47.9807 39.7153 48.5469 41.7751 49.6111 43.7016C50.2381 44.8363 51.078 45.7995 52.2638 46.5039ZM96.9912 46.5572C97.1927 46.4163 97.3067 46.3402 97.4169 46.2526C99.1119 44.9162 100.18 43.1838 100.655 41.0859C100.989 39.601 101.134 38.1085 100.662 36.6236C100.176 35.0969 99.0435 34.3582 97.4891 34.4877C97.0825 34.5219 96.9304 34.6476 96.9342 35.093C96.957 38.7558 96.9494 42.4185 96.9532 46.0851C96.9532 46.2069 96.9722 46.325 96.9912 46.5572Z" fill="url(#paint0_linear_1_111)"/>
</g>
<defs>
<linearGradient id="paint0_linear_1_111" x1="76.2066" y1="12.713" x2="72.5104" y2="209.351" gradientUnits="userSpaceOnUse">
<stop stop-color="#FC7700"/>
<stop offset="1" stop-color="#C82800"/>
</linearGradient>
<clipPath id="clip0_1_111">
<rect width="134" height="166" fill="white"/>
</clipPath>
</defs>
</svg>
