<svg width="159" height="155" viewBox="0 0 159 155" fill="none" xmlns="http://www.w3.org/2000/svg">
<g clip-path="url(#clip0_1_117)">
<path opacity="0.33" d="M124.318 119.628C113.938 133.33 100.488 151.087 77.9269 154.447C48.0368 158.899 16.2247 135.99 4.98001 105.773C-4.13883 81.266 -1.21627 47.9694 17.7275 31.8686C40.2319 12.7445 43.332 43.1657 68.7212 21.564C87.7405 5.38361 105.752 -1.43557 115.818 0.250286C134.939 3.44772 154.835 19.7872 158.667 38.9757C160.253 46.9124 157.3 76.0834 124.318 119.628Z" fill="#00EF93"/>
<path d="M12.8796 97.3097C12.8796 94.4229 12.8381 91.5323 12.8947 88.6456C12.9287 86.9787 13.0986 85.3117 13.2648 83.6486C13.4045 82.2545 13.5329 80.8452 13.8274 79.4813C15.6738 70.9271 19.3478 63.2744 25.0645 56.6181C30.0487 50.8143 36.0524 46.4235 43.0114 43.3283C46.7723 41.6538 50.6879 40.4453 54.7583 39.8089C58.5569 39.2141 62.3819 38.9072 66.2295 39.2861C67.2 39.3808 68.1666 39.4982 69.1332 39.6384C69.4957 39.6914 69.6619 39.5967 69.7865 39.2406C72.4183 31.6599 76.9456 25.4355 83.2174 20.4878C86.5742 17.8397 90.2859 15.8091 94.3035 14.3241C99.6804 12.3427 105.22 11.4979 110.925 11.9184C120.153 12.5965 128.245 16.0402 135.204 22.1585C139.962 26.3372 143.481 31.4099 145.92 37.2441C146.932 39.6611 147.721 42.1539 148.19 44.7338C148.771 47.9502 149.243 51.1893 148.994 54.4701C148.847 56.4022 148.624 58.3343 148.28 60.2399C146.747 68.7108 142.809 75.9164 136.737 81.9628C133.082 85.6035 128.861 88.4296 124.122 90.4526C120.652 91.9339 117.053 92.972 113.285 93.3622C112.507 93.4417 112.488 93.4455 112.409 94.2032C112.103 97.1582 111.571 100.071 110.744 102.92C110.008 105.462 109.075 107.936 107.946 110.338C105.639 115.244 102.633 119.669 98.9101 123.601C94.8095 127.935 90.1047 131.444 84.7655 134.103C82.4509 135.255 80.0721 136.24 77.6139 137.005C75.1256 137.778 72.592 138.376 69.9979 138.74C66.9508 139.164 63.9036 139.392 60.83 139.369C56.6123 139.339 52.3984 139.327 48.1807 139.346C47.72 139.346 47.2329 139.566 46.81 139.778C42.5093 141.934 38.2274 144.116 33.9266 146.271C32.6352 146.919 31.3476 147.563 29.9279 147.923C27.5868 148.518 25.2835 148.552 22.9613 147.81C18.2868 146.313 15.0508 143.332 13.4989 138.626C13.0345 137.217 12.8645 135.736 12.8683 134.243C12.8796 131.356 12.8683 128.466 12.8721 125.579C12.8759 123.605 13.9973 121.95 15.7644 121.26C18.3019 120.271 21.0469 121.669 21.7266 124.314C21.8588 124.829 21.923 125.371 21.9267 125.901C21.9456 128.917 21.9267 131.932 21.9381 134.944C21.9494 137.649 24.1885 139.698 26.8203 139.361C27.5189 139.27 28.2212 138.994 28.8631 138.679C32.6126 136.831 36.347 134.948 40.0851 133.073C41.52 132.353 42.9548 131.644 44.3745 130.902C45.277 130.428 46.221 130.227 47.2329 130.227C52.4399 130.231 57.6469 130.258 62.8539 130.212C66.7204 130.182 70.5152 129.652 74.2458 128.561C82.9418 126.015 89.9536 121.056 95.4325 113.869C98.6269 109.675 100.858 105 102.274 99.9124C102.841 97.878 103.098 95.8057 103.381 93.7334C103.724 91.2217 103.781 88.691 103.558 86.1755C103.313 83.3834 102.879 80.6179 102.093 77.9053C99.9976 70.6505 96.1839 64.4678 90.7315 59.2966C87.0386 55.7923 82.802 53.1101 78.0973 51.1742C75.4428 50.0831 72.6901 49.2837 69.8695 48.8291C65.9313 48.1927 61.9665 48.0752 57.9754 48.5223C54.2561 48.939 50.6803 49.8596 47.2518 51.3068C38.386 55.0459 31.6157 61.1567 26.9223 69.5822C24.8833 73.2456 23.4371 77.1439 22.6895 81.2581C22.2477 83.6827 22.006 86.1755 21.9683 88.638C21.8701 94.8245 21.9494 101.015 21.9267 107.201C21.9192 109.103 21.1376 110.581 19.4195 111.55C16.9463 112.948 14.2541 111.319 13.4272 109.592C13.0684 108.842 12.8683 108.057 12.8683 107.22C12.8683 103.921 12.8683 100.621 12.8683 97.3249L12.8796 97.3097ZM112.473 84.3457C113.391 84.1942 114.237 84.0994 115.06 83.9138C120.169 82.7735 124.752 80.5535 128.74 77.1439C134.343 72.3515 137.923 66.3506 139.327 59.0844C139.969 55.7695 140.17 52.4281 139.754 49.0602C139.358 45.8325 138.633 42.6919 137.236 39.752C132.267 29.2997 124.156 23.0185 112.677 21.2531C109.241 20.7227 105.805 20.8364 102.395 21.4274C97.9321 22.2002 93.8466 23.9391 90.1386 26.5342C84.8108 30.2658 80.9556 35.1756 78.5919 41.2598C78.4182 41.7031 78.5315 41.8546 78.9544 41.9228C79.1696 41.9569 79.3811 42.0365 79.585 42.1122C84.5465 43.9761 89.1645 46.4651 93.3368 49.7611C101.051 55.8605 106.617 63.5093 109.887 72.8175C110.933 75.7952 111.767 78.8259 112.118 81.9779C112.205 82.7545 112.352 83.5274 112.477 84.3495L112.473 84.3457Z" fill="url(#paint0_linear_1_117)"/>
<path d="M80.9556 93.741C78.9015 93.6917 76.5076 92.1726 76.4623 89.2933C76.4207 86.6945 78.354 84.7662 80.9329 84.698C83.3382 84.6336 85.4414 86.7286 85.4754 89.1532C85.5056 91.6081 83.4439 93.7069 80.9594 93.7448L80.9556 93.741Z" fill="url(#paint1_linear_1_117)"/>
<path d="M44.6427 93.7411C42.4375 93.6767 40.1606 91.9833 40.1493 89.2897C40.138 86.8007 41.992 84.7549 44.6389 84.7019C47.0668 84.6564 49.1511 86.7287 49.1737 89.1609C49.2002 91.6082 47.1234 93.707 44.6427 93.7411Z" fill="url(#paint2_linear_1_117)"/>
<path d="M62.7822 93.7411C60.6035 93.6653 58.3794 92.0553 58.3001 89.2746C58.2284 86.7931 60.3127 84.7209 62.801 84.6981C65.2138 84.6792 67.2868 86.7325 67.3284 89.1761C67.3661 91.5969 65.2554 93.7146 62.7822 93.7411Z" fill="url(#paint3_linear_1_117)"/>
</g>
<defs>
<linearGradient id="paint0_linear_1_117" x1="82.4358" y1="-7.27759" x2="78.7526" y2="188.379" gradientUnits="userSpaceOnUse">
<stop stop-color="#FC7700"/>
<stop offset="1" stop-color="#C82800"/>
</linearGradient>
<linearGradient id="paint1_linear_1_117" x1="82.7718" y1="-7.26999" x2="79.0887" y2="188.387" gradientUnits="userSpaceOnUse">
<stop stop-color="#FC7700"/>
<stop offset="1" stop-color="#C82800"/>
</linearGradient>
<linearGradient id="paint2_linear_1_117" x1="46.4815" y1="-7.95183" x2="42.7984" y2="187.705" gradientUnits="userSpaceOnUse">
<stop stop-color="#FC7700"/>
<stop offset="1" stop-color="#C82800"/>
</linearGradient>
<linearGradient id="paint3_linear_1_117" x1="64.6286" y1="-7.61084" x2="60.9416" y2="188.046" gradientUnits="userSpaceOnUse">
<stop stop-color="#FC7700"/>
<stop offset="1" stop-color="#C82800"/>
</linearGradient>
<clipPath id="clip0_1_117">
<rect width="159" height="155" fill="white"/>
</clipPath>
</defs>
</svg>
