<svg width="180" height="163" viewBox="0 0 180 163" fill="none" xmlns="http://www.w3.org/2000/svg">
<g clip-path="url(#clip0_1_157)">
<path opacity="0.33" d="M179.001 67.8731C182.543 82.2684 176.233 97.8015 166.86 107.07C154.708 119.086 144.055 113.997 122.804 121.639C86.2692 134.775 86.0402 161.221 62.7914 162.917C38.7828 164.669 15.5582 138.188 6.24759 115.742C4.91899 112.54 -10.5664 73.4058 12.8386 41.5106C32.0427 15.3424 63.4782 13.06 77.7078 12.0263C123.102 8.73096 153.695 36.6128 164.778 46.7138C171.976 53.2732 176.94 59.4961 179.001 67.8731Z" fill="#00EF93"/>
<path d="M23.6651 93.0492C23.6651 93.7672 23.6651 94.3292 23.6651 94.8946C23.6651 105.592 23.6998 116.286 23.6304 126.984C23.62 128.694 24.0571 129.27 25.854 129.266C62.7497 129.218 99.6488 129.218 136.544 129.266C138.334 129.266 138.817 128.711 138.775 126.987C138.667 122.596 138.74 118.201 138.74 113.806C138.74 113.4 138.74 112.998 138.747 112.592C138.768 111.368 139.33 110.58 140.607 110.556C141.883 110.532 142.567 111.336 142.577 112.512C142.619 117.948 142.671 123.383 142.553 128.815C142.501 131.275 140.6 132.926 138.126 133.075C137.665 133.103 137.2 133.086 136.739 133.086C99.7251 133.086 62.715 133.086 25.7013 133.086C21.3097 133.086 19.7972 131.556 19.7937 127.119C19.7937 116.422 19.7937 105.727 19.7937 95.0299C19.7937 94.4055 19.7937 93.7811 19.7937 93.2018C15.35 92.1751 14.5695 91.1587 14.5695 86.5696C14.5695 84.9497 14.684 83.3228 14.5452 81.7133C14.2191 77.8665 15.9467 75.1158 20.8934 75.4418C23.4188 75.6083 25.9615 75.4696 28.8234 75.4696C27.415 72.3616 26.1246 69.486 24.8133 66.6208C22 60.4707 24.1022 53.8697 29.8953 50.89C32.445 49.5788 35.1542 49.2181 37.9745 49.9431C40.3091 50.5432 42.6541 51.1051 45.176 51.7329V44.8301C43.4866 45.4025 41.8632 46.1413 40.1564 46.4882C36.743 47.1854 31.55 44.7018 29.7843 41.7221C28.9864 40.3762 29.2952 38.6766 30.5509 37.4868C35.4213 32.8664 38.8937 32.3738 45.2246 35.5096C45.2627 34.8332 45.287 34.2227 45.3356 33.6122C45.4292 32.4779 46.0085 31.7529 47.181 31.7113C48.4368 31.6697 49.1202 32.4224 49.2208 33.6052C49.3144 34.6944 49.252 35.801 49.252 36.9006C49.2624 41.6423 49.2693 46.3807 49.2832 51.1224C49.2832 51.23 49.3491 51.341 49.4601 51.6844C51.656 51.1571 53.883 50.6646 56.0858 50.0853C60.9319 48.8122 65.0843 50.0332 68.2653 53.8281C71.5087 57.6992 71.8244 62.0733 69.7049 66.6486C68.4006 69.4652 67.1413 72.3061 65.7711 75.3343H93.9944C93.9944 73.0727 93.8071 70.7798 94.0257 68.5251C94.9657 58.8265 103.073 50.4356 112.727 49.1626C114.128 48.9787 114.395 48.4342 114.378 47.1854C114.316 43.1374 114.354 39.0928 114.357 35.0448C114.357 34.5245 114.336 33.9972 114.406 33.4873C114.558 32.3704 115.179 31.6732 116.359 31.7044C117.535 31.7321 118.121 32.4606 118.246 33.574C118.315 34.188 118.308 34.8089 118.319 34.9858C120.678 34.4828 122.974 33.6677 125.302 33.574C128.885 33.4318 131.421 35.7593 133.655 38.2291C134.803 39.4987 134.435 41.2573 133.048 42.572C129.277 46.1378 125.159 48.559 118.281 44.4867C118.281 45.8014 118.208 46.9842 118.326 48.1428C118.36 48.4792 118.919 48.9441 119.304 49.0308C132.94 51.9862 140.079 61.6223 138.581 75.4696C140.013 75.4696 141.418 75.4557 142.823 75.4696C145.942 75.5077 147.77 77.3254 147.808 80.4403C147.836 82.5805 147.815 84.7173 147.815 86.8575C147.815 91.1067 146.854 92.3034 142.591 93.1637C142.591 95.6438 142.702 98.1795 142.528 100.691C142.473 101.509 141.866 102.567 141.182 103.005C140.083 103.709 138.778 102.616 138.744 101.045C138.688 98.4466 138.73 95.8485 138.73 92.9417C137.897 92.9417 137.172 92.9417 136.447 92.9417C110.77 92.9417 85.0931 92.9417 59.416 92.9417C56.9947 92.9417 55.9644 92.3832 55.9193 91.0512C55.8742 89.6637 57.0016 89.0116 59.468 89.0116C86.8241 89.0116 114.177 89.0116 141.533 89.0116C143.149 89.0116 143.958 88.1837 143.958 86.528C143.958 84.6201 143.923 82.7123 143.971 80.8045C143.999 79.7466 143.545 79.3199 142.525 79.3789C142.123 79.4031 141.717 79.3789 141.311 79.3789C101.234 79.3789 61.1574 79.3789 21.0772 79.3789C19.3011 79.3789 18.4131 80.253 18.4131 82.0012C18.4131 83.7356 18.4998 85.4769 18.3853 87.2044C18.2847 88.7063 18.9092 89.0497 20.2967 89.0428C28.7991 88.9942 37.298 89.0185 45.8004 89.0185C46.2618 89.0185 46.7266 88.9942 47.188 89.0359C48.3848 89.1399 49.193 89.7955 49.193 90.9992C49.193 92.2028 48.4056 92.8688 47.181 92.9313C46.7197 92.9556 46.2548 92.9451 45.7935 92.9451C39.0845 92.9451 32.3756 92.9451 25.6667 92.9486C25.0492 92.9486 24.4282 93.0006 23.6477 93.0388L23.6651 93.0492ZM47.3718 75.4765C51.5901 75.4765 55.8083 75.5112 60.0231 75.4384C60.6267 75.428 61.539 75.036 61.7679 74.5608C63.4539 71.0816 65.223 67.6163 66.4926 63.9811C67.072 62.323 67.0338 60.1446 66.4822 58.4623C65.1849 54.501 61.0984 52.6209 56.908 53.9287C51.0524 55.7567 45.2419 56.7141 39.3135 54.3414C38.6232 54.0639 37.8808 53.8905 37.1489 53.7379C34.0025 53.0857 31.269 53.8523 29.2154 56.3741C27.2103 58.8335 26.9085 61.6119 28.1816 64.5049C29.6213 67.7794 31.1892 70.9949 32.5907 74.2867C33.0139 75.2788 33.5793 75.5008 34.5506 75.4904C38.8244 75.4522 43.1016 75.4731 47.3753 75.4731L47.3718 75.4765ZM134.446 75.4037C136.222 67.6337 132.822 59.6278 126.113 55.5173C119.248 51.3097 110.566 51.9133 104.439 57.0297C98.9793 61.5842 96.2007 69.9161 98.3584 75.4071H134.446V75.4037ZM44.0416 40.0606C40.5866 36.4323 36.7291 36.4739 33.8707 40.0953C37.1038 43.6161 40.4617 43.6334 44.0416 40.0606ZM129.797 40.0953C126.561 36.4045 121.795 36.5086 119.706 40.234C123.286 43.6057 126.315 43.5918 129.797 40.0953Z" fill="url(#paint0_linear_1_157)"/>
<path d="M68.5567 29.186C67.5195 26.678 66.6106 24.3817 65.6254 22.1201C64.9247 20.5071 64.7096 18.974 66.1596 17.6801C67.6027 16.3897 69.1152 16.7436 70.6415 17.6107C71.8903 18.3218 73.1808 18.9566 74.6551 19.7336C75.6368 17.4408 76.615 15.2485 77.517 13.0216C78.2107 11.315 79.1127 9.89624 81.1975 9.89624C83.2823 9.89624 84.1877 11.3115 84.878 13.0216C85.7626 15.2104 86.7166 17.3679 87.7226 19.7301C89.242 18.9358 90.6643 18.2178 92.0588 17.4546C93.5088 16.6638 94.9311 16.5111 96.2354 17.6766C97.5397 18.8456 97.5432 20.2678 96.8979 21.7975C95.8919 24.1771 94.9241 26.574 94.0361 28.7281C96.6412 29.7132 99.2395 30.3584 101.494 31.6141C105.751 33.9832 108.262 37.7954 109.268 42.5719C109.317 42.7973 109.338 43.0297 109.362 43.2587C109.501 44.4866 108.97 45.3503 107.777 45.555C106.569 45.7596 105.848 45.0659 105.539 43.8865C103.555 36.3281 99.3886 33.1091 91.6078 33.1022C84.4965 33.0987 77.3817 33.0883 70.2703 33.1022C63.1104 33.1195 58.5002 36.7756 56.8906 43.7131C56.5992 44.9653 55.9158 45.77 54.6185 45.5446C53.2101 45.3018 52.8909 44.2403 53.0678 42.9083C53.9455 36.29 60.0161 30.3202 66.8604 29.3837C67.3148 29.3212 67.7692 29.2761 68.5532 29.1825L68.5567 29.186ZM69.639 21.5339C70.7074 24.1077 71.5191 26.2063 72.4662 28.2425C72.6708 28.6795 73.3612 29.1547 73.8329 29.1617C78.738 29.2276 83.6466 29.2241 88.5517 29.1686C89.0061 29.1651 89.6964 28.8009 89.8699 28.4194C90.8377 26.3 91.6807 24.1216 92.7317 21.5582C90.359 22.8173 88.3886 23.8614 86.4217 24.9055C82.8834 26.7856 79.3624 26.7509 75.8449 24.8327C73.9335 23.792 72.0048 22.7896 69.639 21.5339ZM78.1448 21.5929C80.2574 22.5884 82.1515 22.5884 84.2432 21.5929C83.2615 19.2757 82.318 17.0488 81.2044 14.4264C80.0978 17.0176 79.1647 19.2064 78.1483 21.5894L78.1448 21.5929Z" fill="url(#paint1_linear_1_157)"/>
<path d="M81.1524 114.385C78.6097 114.385 76.0635 114.42 73.5207 114.379C69.2054 114.309 65.9792 111.156 65.9168 106.997C65.8509 102.717 68.966 99.3796 73.3611 99.2929C78.6201 99.1889 83.8859 99.1819 89.1448 99.2999C93.4359 99.397 96.5268 102.727 96.4921 106.924C96.4574 111.097 93.2521 114.299 88.961 114.375C86.3593 114.424 83.7576 114.385 81.1559 114.385H81.1524ZM81.4091 103.22C78.8074 103.22 76.2057 103.188 73.6074 103.23C71.3526 103.265 69.7673 104.808 69.7847 106.848C69.802 108.881 71.4081 110.483 73.6283 110.504C78.6548 110.549 83.6847 110.546 88.7147 110.504C91.0319 110.487 92.6762 108.839 92.6207 106.74C92.5652 104.694 90.9903 103.254 88.6973 103.223C86.2691 103.192 83.8408 103.216 81.416 103.216L81.4091 103.22Z" fill="url(#paint2_linear_1_157)"/>
<path d="M124.07 11.603C123.078 12.6575 122.52 13.7328 121.666 14.0831C118.024 15.5677 115.54 18.0306 114.069 21.6901C113.761 22.4532 112.533 23.3169 111.749 23.2996C110.867 23.2788 109.532 22.4948 109.227 21.7178C107.777 18.034 105.286 15.6024 101.661 14.0797C100.866 13.7467 100.148 12.5291 99.968 11.6064C99.7009 10.2432 100.776 9.40725 102.004 8.96672C104.859 7.94344 106.958 6.06684 108.363 3.40284C108.658 2.84437 108.713 2.08819 109.129 1.68234C109.868 0.97125 110.798 0 111.648 0C112.484 0 113.75 0.881062 114.09 1.68928C115.585 5.25516 117.965 7.73531 121.586 9.16097C122.454 9.50437 123.043 10.5589 124.074 11.6064L124.07 11.603ZM115.967 11.655C114.687 10.4305 112.734 8.56087 111.523 7.40231C110.337 8.52272 108.398 10.3577 107.135 11.5475C108.533 12.9523 110.416 14.8393 111.554 15.9805C112.817 14.7422 114.725 12.8725 115.967 11.655Z" fill="url(#paint3_linear_1_157)"/>
<path d="M135.022 14.9399C135.993 15.8314 137.002 16.3517 137.36 17.1599C138.348 19.4077 139.892 20.8888 142.091 21.9468C142.858 22.3145 143.698 23.4731 143.68 24.257C143.666 25.0409 142.782 26.1232 142.001 26.5117C139.934 27.5315 138.331 28.8704 137.505 31.0523C137.079 32.1762 136.361 32.8942 135.07 32.8803C133.787 32.8664 133.072 32.1553 132.652 31.0211C131.865 28.8947 130.373 27.4378 128.278 26.6331C127.14 26.196 126.405 25.4953 126.377 24.2362C126.349 22.9632 127.109 22.2208 128.223 21.8011C130.47 20.9513 131.865 19.3314 132.819 17.1495C133.159 16.3725 134.085 15.8488 135.022 14.9399ZM135.143 26.8343C134.98 26.6678 134.817 26.5048 134.654 26.3383C135.733 25.6168 136.815 24.8918 137.675 24.316C136.669 23.3517 135.778 22.4949 135.105 21.8462C134.279 22.5469 133.284 23.3898 132.43 24.1148C133.374 25.0583 134.262 25.9463 135.147 26.8308L135.143 26.8343Z" fill="url(#paint4_linear_1_157)"/>
<path d="M47.306 14.7214C46.4145 15.6545 45.8734 16.6396 45.0547 16.9969C42.8658 17.9577 41.2839 19.3973 40.4271 21.6207C39.99 22.755 39.1714 23.65 37.9815 23.3447C37.1247 23.1262 36.136 22.3735 35.744 21.5895C34.6895 19.4667 33.2256 17.982 31.054 16.9796C30.2978 16.6292 29.5242 15.4811 29.4861 14.6624C29.4514 13.934 30.2527 12.7858 30.9708 12.4667C33.2776 11.44 34.797 9.86169 35.8377 7.58272C36.1638 6.86816 37.2947 6.11544 38.0544 6.11891C38.8106 6.11891 39.9207 6.8855 40.2571 7.60353C41.3152 9.86863 42.8276 11.4712 45.1553 12.4528C45.9289 12.7789 46.4249 13.7571 47.306 14.7179V14.7214ZM35.5984 14.6694C36.4344 15.4915 37.3467 16.3864 38.0717 17.094C38.9112 16.3482 39.8756 15.4915 40.6075 14.8428C39.7264 13.882 38.88 12.9593 38.1307 12.1441C37.2843 12.987 36.4031 13.8646 35.5984 14.6694Z" fill="url(#paint5_linear_1_157)"/>
<path d="M81.1282 46.946C80.2921 46.5541 79.1613 46.3841 78.8976 45.8117C78.5785 45.118 78.8803 43.3628 79.1127 43.3247C80.5037 43.1027 81.9711 43.1339 83.3622 43.3801C83.5668 43.4148 83.8027 45.2012 83.4524 45.8776C83.1575 46.4431 82.0231 46.5714 81.1316 46.946H81.1282Z" fill="url(#paint6_linear_1_157)"/>
<path d="M81.1594 64.7719C83.1054 64.765 84.049 65.4032 83.9657 66.7595C83.8582 68.48 82.6198 68.6777 81.2461 68.6708C79.3243 68.6604 78.3495 68.0117 78.4397 66.6728C78.5542 64.9592 79.7752 64.7199 81.1628 64.7719H81.1594Z" fill="url(#paint7_linear_1_157)"/>
<path d="M93.5158 42.7662C95.4827 42.7558 96.4574 43.3837 96.3603 44.7087C96.2389 46.3772 95.0386 46.6616 93.6476 46.6547C91.7154 46.6443 90.7753 46.0269 90.8308 44.6671C90.9002 42.905 92.1559 42.742 93.5192 42.7662H93.5158Z" fill="url(#paint8_linear_1_157)"/>
<path d="M75.0784 57.89C73.0803 57.9004 72.1437 57.3073 72.2338 55.9683C72.3449 54.2895 73.5486 54.012 74.9396 54.012C76.8753 54.012 77.805 54.6329 77.7633 55.9996C77.7044 57.779 76.4451 57.9247 75.0818 57.89H75.0784Z" fill="url(#paint9_linear_1_157)"/>
<path d="M87.3792 57.8865C86.0367 57.9143 84.7428 57.8379 84.6422 56.0515C84.5659 54.6675 85.4921 54.0189 87.4069 54.0084C88.7841 54.0015 90.0121 54.2374 90.1682 55.9128C90.2931 57.2621 89.353 57.89 87.3792 57.8865Z" fill="url(#paint10_linear_1_157)"/>
<path d="M68.7614 42.7663C70.763 42.7524 71.6476 43.3352 71.5712 44.7123C71.4776 46.4224 70.2565 46.6548 68.8759 46.6513C66.9818 46.6444 65.955 45.9784 66.0383 44.6602C66.1458 42.9467 67.3808 42.7247 68.7579 42.7628L68.7614 42.7663Z" fill="url(#paint11_linear_1_157)"/>
</g>
<defs>
<linearGradient id="paint0_linear_1_157" x1="78.3356" y1="0.423191" x2="83.1361" y2="140.186" gradientUnits="userSpaceOnUse">
<stop stop-color="#FC7700"/>
<stop offset="1" stop-color="#C82800"/>
</linearGradient>
<linearGradient id="paint1_linear_1_157" x1="79.7197" y1="0.374523" x2="84.5237" y2="140.137" gradientUnits="userSpaceOnUse">
<stop stop-color="#FC7700"/>
<stop offset="1" stop-color="#C82800"/>
</linearGradient>
<linearGradient id="paint2_linear_1_157" x1="77.5447" y1="0.447394" x2="82.3452" y2="140.214" gradientUnits="userSpaceOnUse">
<stop stop-color="#FC7700"/>
<stop offset="1" stop-color="#C82800"/>
</linearGradient>
<linearGradient id="paint3_linear_1_157" x1="111.582" y1="-0.7215" x2="116.386" y2="139.045" gradientUnits="userSpaceOnUse">
<stop stop-color="#FC7700"/>
<stop offset="1" stop-color="#C82800"/>
</linearGradient>
<linearGradient id="paint4_linear_1_157" x1="134.148" y1="-1.49499" x2="138.948" y2="138.268" gradientUnits="userSpaceOnUse">
<stop stop-color="#FC7700"/>
<stop offset="1" stop-color="#C82800"/>
</linearGradient>
<linearGradient id="paint5_linear_1_157" x1="37.9538" y1="1.81072" x2="42.7577" y2="141.574" gradientUnits="userSpaceOnUse">
<stop stop-color="#FC7700"/>
<stop offset="1" stop-color="#C82800"/>
</linearGradient>
<linearGradient id="paint6_linear_1_157" x1="79.6643" y1="0.374611" x2="84.4682" y2="140.141" gradientUnits="userSpaceOnUse">
<stop stop-color="#FC7700"/>
<stop offset="1" stop-color="#C82800"/>
</linearGradient>
<linearGradient id="paint7_linear_1_157" x1="78.9219" y1="0.402312" x2="83.7224" y2="140.165" gradientUnits="userSpaceOnUse">
<stop stop-color="#FC7700"/>
<stop offset="1" stop-color="#C82800"/>
</linearGradient>
<linearGradient id="paint8_linear_1_157" x1="92.0588" y1="-0.0485376" x2="96.8628" y2="139.714" gradientUnits="userSpaceOnUse">
<stop stop-color="#FC7700"/>
<stop offset="1" stop-color="#C82800"/>
</linearGradient>
<linearGradient id="paint9_linear_1_157" x1="73.0907" y1="0.60366" x2="77.8946" y2="140.366" gradientUnits="userSpaceOnUse">
<stop stop-color="#FC7700"/>
<stop offset="1" stop-color="#C82800"/>
</linearGradient>
<linearGradient id="paint10_linear_1_157" x1="85.4886" y1="0.176886" x2="90.2926" y2="139.94" gradientUnits="userSpaceOnUse">
<stop stop-color="#FC7700"/>
<stop offset="1" stop-color="#C82800"/>
</linearGradient>
<linearGradient id="paint11_linear_1_157" x1="67.301" y1="0.801356" x2="72.1014" y2="140.564" gradientUnits="userSpaceOnUse">
<stop stop-color="#FC7700"/>
<stop offset="1" stop-color="#C82800"/>
</linearGradient>
<clipPath id="clip0_1_157">
<rect width="180" height="163" fill="white"/>
</clipPath>
</defs>
</svg>
