<svg width="158" height="168" viewBox="0 0 158 168" fill="none" xmlns="http://www.w3.org/2000/svg">
<g clip-path="url(#clip0_1_124)">
<path opacity="0.33" d="M152.479 74.298C157.791 87.6946 154.813 110.278 118.627 150.585C117.806 151.491 116.592 152.756 115.025 154.15C93.7022 173.129 61.611 167.312 58.1249 166.627C52.8742 165.597 36.6035 162.185 22.1119 148.447C20.7254 147.131 -2.01687 124.869 0.143908 92.4786C2.0598 63.7389 22.3423 45.6759 39.038 30.807C48.8155 22.0981 63.0047 9.74236 85.1347 3.71422C118.007 -5.24064 155.497 3.29001 157.881 15.4782C159.584 24.1835 142.183 28.6859 140.595 45.0663C139.385 57.5539 148.572 64.4376 152.479 74.298Z" fill="#00EF93"/>
<path d="M19.5839 134.562C19.5839 133.681 19.5839 133.043 19.5839 132.402C19.5839 125.272 19.5659 118.142 19.5911 111.013C19.6091 106.254 22.663 103.238 27.4888 103.202C31.5114 103.17 35.5305 103.166 39.5531 103.202C44.2925 103.245 47.3392 106.232 47.3608 110.902C47.3968 118.032 47.3716 125.161 47.3716 132.291C47.3716 132.94 47.3716 133.589 47.3716 134.391H62.4322C62.4322 133.653 62.4322 132.958 62.4322 132.259C62.4322 117.882 62.4322 103.505 62.4322 89.1281C62.4322 83.5313 65.2809 80.7472 70.9925 80.7436C74.5938 80.7401 78.1951 80.7365 81.7964 80.7436C87.2416 80.7579 90.1731 83.6276 90.1731 88.9784C90.1803 103.416 90.1731 117.854 90.1731 132.288C90.1731 132.983 90.1731 133.678 90.1731 134.455H105.227V132.106C105.227 104.895 105.227 77.685 105.227 50.4746C105.227 46.1077 106.977 43.5196 110.654 42.4822C111.388 42.2755 112.188 42.2113 112.959 42.2078C117.039 42.1828 121.123 42.1721 125.203 42.2006C129.913 42.2363 132.942 45.2129 132.964 49.9292C133.003 59.5542 132.978 69.1793 132.978 78.8044C132.978 96.6285 132.978 114.449 132.978 132.273C132.978 132.968 132.978 133.664 132.978 134.544C134.898 134.544 136.623 134.516 138.348 134.551C140.346 134.59 141.535 135.592 141.56 137.182C141.585 138.786 140.4 139.813 138.423 139.891C138.006 139.909 137.584 139.895 137.163 139.895C96.4717 139.895 55.777 139.895 15.0859 139.895C14.4845 139.895 13.8794 139.931 13.2888 139.863C11.6971 139.681 10.6707 138.594 10.6923 137.182C10.7139 135.767 11.7475 134.662 13.3681 134.583C15.338 134.491 17.3187 134.562 19.5803 134.562H19.5839ZM127.576 134.448C127.576 133.721 127.576 133.083 127.576 132.444C127.576 128.17 127.576 123.892 127.576 119.618C127.576 96.6357 127.576 73.6532 127.576 50.6671C127.576 48.0006 127.126 47.5586 124.454 47.555C120.914 47.5514 117.374 47.5514 113.834 47.555C111.01 47.555 110.65 47.9186 110.65 50.7669C110.65 78.0272 110.65 105.284 110.65 132.544C110.65 133.172 110.65 133.796 110.65 134.448H127.58H127.576ZM84.6343 134.501C84.6991 134.17 84.7639 134.002 84.7639 133.835C84.7711 118.748 84.7783 103.658 84.7639 88.572C84.7639 86.7896 84.0581 86.123 82.225 86.1087C78.5048 86.0802 74.7847 86.0944 71.0645 86.098C68.2771 86.098 67.8486 86.5258 67.8486 89.3135C67.8486 103.748 67.8486 118.182 67.8486 132.616C67.8486 133.236 67.8486 133.856 67.8486 134.505H84.6379L84.6343 134.501ZM41.9624 134.469C41.9624 126.63 41.9696 118.987 41.9588 111.341C41.9588 109.116 41.3646 108.56 39.0418 108.553C35.3864 108.542 31.7347 108.546 28.0794 108.553C25.5477 108.556 25.0003 109.088 25.0003 111.551C24.9931 118.609 24.9967 125.664 25.0003 132.722C25.0003 133.293 25.0579 133.86 25.0903 134.469H41.9624Z" fill="url(#paint0_linear_1_124)"/>
<path d="M96.731 34.6717C105.684 25.7917 114.399 17.1434 123.139 8.47369C122.92 8.44874 122.502 8.36318 122.084 8.35962C119.383 8.34536 116.682 8.3917 113.985 8.33466C112.119 8.29545 111.035 7.24026 111.05 5.65034C111.061 4.06756 112.145 3.03019 114.032 3.01236C119.311 2.97315 124.594 2.96602 129.874 3.01593C131.959 3.03375 132.942 4.03191 132.967 6.14229C133.018 11.0119 133.014 15.885 132.971 20.7546C132.953 22.6938 131.829 23.8274 130.194 23.7811C128.649 23.7348 127.619 22.594 127.594 20.7652C127.555 18.0952 127.583 15.4251 127.583 12.2881C126.863 12.9333 126.402 13.3147 125.977 13.7318C117.406 22.2126 108.839 30.6933 100.268 39.1776C97.5053 41.9118 96.6158 41.9261 93.9184 39.2275C91.0482 36.3614 88.1959 33.481 85.1889 30.4616C84.6018 31.0106 84.1301 31.4277 83.6871 31.8697C69.0046 46.4 54.3221 60.9338 39.636 75.4641C39.085 76.0095 38.5412 76.8187 37.8893 76.9364C36.8846 77.1182 35.5989 77.1146 34.7814 76.6227C33.665 75.956 33.5678 74.6299 34.2772 73.4606C34.6121 72.9117 35.0767 72.4233 35.5377 71.967C51.0989 56.5455 66.6674 41.1311 82.2358 25.7204C84.5586 23.421 85.585 23.4139 87.9222 25.7489C90.9077 28.7362 93.8608 31.7556 96.7382 34.6717H96.731Z" fill="url(#paint1_linear_1_124)"/>
<path d="M30.0781 84.0731C30.0853 85.467 28.886 86.7147 27.4923 86.7574C26.023 86.8002 24.7193 85.5097 24.7518 84.041C24.7842 82.6151 25.9906 81.4601 27.4383 81.4708C28.8752 81.4815 30.0709 82.6579 30.0781 84.0767V84.0731Z" fill="url(#paint2_linear_1_124)"/>
</g>
<defs>
<linearGradient id="paint0_linear_1_124" x1="78.4364" y1="15.6818" x2="75.017" y2="199.793" gradientUnits="userSpaceOnUse">
<stop stop-color="#FC7700"/>
<stop offset="1" stop-color="#C82800"/>
</linearGradient>
<linearGradient id="paint1_linear_1_124" x1="84.0004" y1="15.7852" x2="80.5811" y2="199.896" gradientUnits="userSpaceOnUse">
<stop stop-color="#FC7700"/>
<stop offset="1" stop-color="#C82800"/>
</linearGradient>
<linearGradient id="paint2_linear_1_124" x1="28.7276" y1="14.7584" x2="25.3082" y2="198.869" gradientUnits="userSpaceOnUse">
<stop stop-color="#FC7700"/>
<stop offset="1" stop-color="#C82800"/>
</linearGradient>
<clipPath id="clip0_1_124">
<rect width="158" height="168" fill="white"/>
</clipPath>
</defs>
</svg>
