<svg width="243" height="128" viewBox="0 0 243 128" fill="none" xmlns="http://www.w3.org/2000/svg">
<g clip-path="url(#clip0_1_33)">
<path opacity="0.36" d="M227.079 32.0495C221.666 22.9661 214.138 10.3509 200.226 3.9146C194.378 1.20805 186.004 -1.04301 171.709 0.508304C136.773 4.30408 133.013 23.6064 102.268 31.7128C68.0199 40.7435 53.1761 21.9297 23.3496 37.588C17.6989 40.552 3.68122 47.9125 2.14793 60.1184C0.363496 74.3179 16.5357 86.6558 25.0019 93.1119C35.074 100.796 50.354 109.774 109.227 120.963C153.131 129.314 165.556 128.297 172.475 127.426C190.306 125.181 209.975 122.706 224.151 106.117C236.953 91.1381 240.403 70.3637 236.728 53.8207C234.745 44.8957 231.005 38.6178 227.079 32.0429V32.0495Z" fill="#0C8E43"/>
<path d="M13.7137 25.2567C14.6786 30.4322 19.5164 43.0275 21.7569 46.3414C24.4665 44.8825 27.2159 43.549 29.919 42.0901C31.6241 41.0999 33.3226 40.5454 35.4111 40.7369C38.5834 41.1462 40.923 43.4236 40.7247 46.3744C40.5727 49.8929 39.2509 52.4939 35.6754 53.9462C32.3577 55.3126 29.04 57.1214 25.5042 58.7057C26.099 60.5343 26.6145 62.1054 26.9515 63.5841L40.0374 106.308C40.7181 108.401 41.2733 110.533 40.3017 112.876C37.4268 113.378 35.0806 112.408 33.0516 110.176C29.2911 106.196 26.4889 101.614 24.6053 96.736C22.4244 90.5044 19.9856 84.3651 17.8509 78.2655C14.9033 70.1194 11.8632 62.145 9.21296 54.0452C6.14638 43.7669 3.42347 33.6668 0.660901 23.4348C0.277578 22.2597 0.112353 20.8668 -0.0132179 19.606C0.0462631 17.1305 1.23588 15.0048 3.89271 14.2853C9.64915 12.8462 14.8438 9.70397 20.9836 9.00423C21.8097 8.8788 22.464 8.66756 23.3364 8.67416C27.2555 8.26488 29.8992 9.71717 31.3994 12.9848C32.7278 16.1667 31.8819 18.8996 28.5641 20.7018C25.947 21.9891 22.8936 22.8406 20.1443 23.7318C18.1814 24.3722 16.1326 24.7484 13.6939 25.2567H13.7137Z" fill="black"/>
<path d="M50.6382 76.5029C51.4313 76.1135 52.1252 75.6778 52.8721 75.3807C53.4603 75.0705 54.141 74.7998 54.8349 74.7602C56.659 74.5886 58.1857 76.0342 57.9346 77.7902C57.7826 79.1897 57.3265 80.6354 55.9651 81.5662C54.9936 82.1075 54.1476 82.761 53.7511 83.9427C56.0113 89.435 58.2055 94.9471 60.4724 100.67C60.8822 100.505 61.4109 100.453 61.9594 100.241C62.8715 99.9575 63.6381 99.4954 64.5105 99.3106C65.753 99.0531 66.8369 99.4096 67.6432 100.433C68.4429 101.456 68.3834 102.506 67.7423 103.469C67.0748 104.367 66.4271 105.331 65.5283 105.846C63.6183 106.995 61.8273 108.255 60.6839 110.13C60.4526 110.539 60.0296 110.863 59.5802 111.12C57.5579 112.394 55.3438 111.384 54.9539 109.015C54.8746 108.414 54.9539 107.833 55.0002 107.344C54.8944 107.074 54.8812 106.843 54.7292 106.664C52.6804 104.09 51.2132 101.199 50.2285 98.1223C46.9702 88.5372 42.8264 79.3019 38.7949 69.9412C38.2001 68.4427 37.6053 66.9442 37.0765 65.4193C36.2768 63.2144 36.799 61.3529 38.6693 59.9006C39.4756 59.3461 40.348 58.7651 41.0552 58.1644C42.9784 56.4547 45.2453 56.1906 47.6774 56.5603C48.8472 56.7253 49.6931 57.26 50.0963 58.2832C50.5721 59.28 50.3474 60.3099 49.6006 61.003C48.986 61.6433 48.2193 62.0988 47.4857 62.6269C46.7191 63.089 45.9326 63.4785 44.9611 64.0198C45.5559 66.3039 46.7323 68.2843 47.6708 70.4363C48.6159 72.4233 49.019 74.6282 50.6382 76.5095V76.5029Z" fill="black"/>
<path d="M70.0423 64.5347C70.9014 64.3301 71.6747 64.0594 72.4744 63.934C73.1155 63.7624 73.8424 63.6501 74.5232 63.769C76.3407 64.0066 77.5038 65.756 76.8694 67.4129C76.4067 68.7464 75.6467 70.0468 74.1068 70.6542C73.0428 70.9644 72.0712 71.4133 71.4169 72.4761C72.3951 78.3315 73.3005 84.1935 74.2456 90.2799C74.6818 90.2139 75.2105 90.2799 75.7921 90.1875C76.7438 90.1149 77.5964 89.8377 78.4886 89.8443C79.7575 89.8707 80.7356 90.4582 81.2908 91.6398C81.846 92.8149 81.5552 93.8249 80.7092 94.617C79.8566 95.3432 79.0173 96.1353 78.0193 96.439C75.8979 97.1387 73.8755 97.9705 72.3356 99.5416C72.0184 99.8849 71.5359 100.109 71.0336 100.261C68.7799 101.053 66.8435 99.5746 66.9955 97.1784C67.0484 96.5776 67.2599 96.0231 67.4119 95.5544C67.3656 95.264 67.4119 95.0329 67.2995 94.8283C65.8786 91.8577 65.0921 88.7154 64.8212 85.5006C63.7835 75.4269 61.8074 65.5051 59.9569 55.4843C59.7124 53.8934 59.4679 52.2958 59.2894 50.6917C59.0052 48.3614 59.9305 46.6649 62.0784 45.6681C62.9905 45.305 63.9686 44.9287 64.7947 44.5062C67.055 43.2652 69.3153 43.5094 71.6086 44.4204C72.7123 44.8429 73.4195 45.5493 73.5847 46.6385C73.8226 47.7145 73.3798 48.6717 72.4942 49.18C71.754 49.6619 70.908 49.9458 70.0687 50.2956C69.2227 50.5729 68.3636 50.7841 67.2995 51.0944C67.3656 53.4577 68.0794 55.6427 68.509 57.9532C68.9914 60.1052 68.8923 62.3431 70.0489 64.5347H70.0423Z" fill="black"/>
<path d="M90.8342 107.272C88.911 106.242 88.5144 104.816 87.9329 103.568C86.578 100.274 86.0295 96.7757 85.9369 93.3562C85.7254 89.0389 85.699 84.715 85.5801 80.3911L85.4413 75.4401C85.0051 69.5055 84.3904 63.4851 84.2252 57.5439C84.1128 53.4049 84.3574 49.2526 84.9654 45.1796C85.9634 38.8489 91.2241 36.7167 97.2582 39.7071C104.112 43.0341 107.608 48.6981 109.24 55.5041C112.201 67.941 111.177 79.863 107.344 91.3164C105.678 96.406 102.83 100.902 98.1306 103.819C95.9165 105.232 93.3258 106.117 90.8276 107.265L90.8342 107.272ZM95.9958 52.6259C95.6522 53.3586 95.2226 54.0914 95.1565 54.9034C94.7798 57.5241 94.3105 60.1514 94.3832 62.759C94.3832 69.4263 94.5749 76.1795 94.8525 82.9261C95.0441 86.6162 95.3217 90.2073 94.4295 93.7456C94.3502 94.1087 94.5419 94.4652 94.5617 95.1847C95.3548 94.6236 96.0752 94.4256 96.4188 93.8711C97.4564 92.2207 98.494 90.5704 99.2541 88.7484C101.607 82.5564 102.598 76.0475 102.869 69.3735C102.995 64.2377 101.151 59.5111 98.5932 54.9892C98.0248 54.0122 97.5423 52.9494 96.0024 52.6259H95.9958Z" fill="black"/>
<path d="M128.955 21.5468L124.943 21.9099C122.597 23.8771 121.949 26.412 121.85 29.1053C121.11 42.3344 123.08 55.3456 127.64 68.0664C128.268 69.6376 129.213 71.2351 130.032 72.7534C130.753 73.8954 131.678 74.6678 133.416 75.0242C135.888 74.6678 137.804 73.024 138.214 70.3505C139.08 65.1948 138.941 60.1052 136.304 55.273C136.027 54.6327 135.518 54.2564 135.048 53.6623L129.266 54.296C128.578 53.6623 127.825 53.1474 127.382 52.6457C126.589 50.091 128.737 46.6385 131.856 44.8759C133.575 44.0045 135.313 43.2256 137.342 43.5028C138.908 43.5953 139.985 44.5326 140.897 46.0312C141.016 47.2326 141.188 48.6189 141.287 50.1306C148.022 57.9598 147.85 66.832 144.962 75.9154C144.261 78.2589 142.88 80.3713 140.812 81.8566C135.326 85.8967 127.514 84.7216 123.39 78.9586C121.242 75.9484 119.524 72.6148 118.4 69.2217C113.926 56.0652 111.924 42.5522 112.512 28.7488C112.736 25.402 113.549 22.3125 115.01 19.3551C116.1 17.3153 117.654 15.4603 119.676 14.1995C121.407 13.0112 123.298 12.4039 125.492 12.5293C127.831 12.8198 129.847 13.8166 130.779 16.1337C131.684 18.3517 130.924 20.0945 128.955 21.5468Z" fill="#A80000"/>
<path d="M150.527 55.5041C148.319 46.6913 147.526 37.8653 148.081 29.0459C148.22 26.2601 148.901 23.613 150.051 21.1111C150.778 19.6456 151.763 18.3649 153.567 17.9953C154.135 17.8236 154.611 17.5266 155.094 17.2955C158.57 15.7508 161.894 16.3977 164.71 19.4343C166.825 21.8438 168.457 24.4844 169.243 27.4154C169.898 29.5476 170.241 31.6534 170.592 33.7593C172.303 43.6217 172.786 53.319 171.312 62.891C171.127 64.0396 170.955 65.2609 170.631 66.4359C170.208 67.9212 169.442 69.1689 168.193 70.1987C166.025 71.9744 163.513 72.1659 160.751 70.8324C158.729 69.895 157.07 68.4559 155.801 66.6537C153.355 63.1748 151.412 59.5441 150.52 55.5173L150.527 55.5041ZM163.117 64.7658C163.52 64.4753 163.725 64.3697 163.758 64.1386C163.903 63.6699 164.029 63.0494 164.088 62.5147C165.186 56.0652 164.683 49.4308 164.644 42.8757C164.584 38.9281 163.487 35.0069 162.04 31.2177C161.531 29.9569 160.724 28.6762 159.938 27.5342C159.621 26.9863 158.966 26.6496 158.451 26.2139C156.587 27.1183 155.761 28.4518 155.431 30.0691C155.199 31.3762 155.127 32.7295 155.054 34.0893C155.008 40.1428 156.158 46.1434 157.532 52.1836C158.22 54.9826 159.125 57.7419 160.031 60.5013C160.586 62.0526 161.108 63.8284 163.13 64.7658H163.117Z" fill="#A80000"/>
<path d="M176.864 48.5727C177.571 39.5156 179.626 30.9009 182.951 22.7086C183.962 20.1143 185.455 17.817 187.339 15.8102C188.496 14.655 189.837 13.7506 191.668 13.9684C192.263 13.9882 192.805 13.8496 193.34 13.7902C197.127 13.4271 200.074 15.0907 201.78 18.8666C203.022 21.824 203.729 24.8474 203.544 27.8709C203.485 30.0955 203.148 32.2079 202.811 34.3138C201.297 44.2092 198.68 53.5567 194.239 62.1648C193.697 63.1946 193.148 64.3037 192.468 65.3137C191.589 66.5877 190.472 67.5317 188.958 68.106C186.334 69.1028 183.896 68.4889 181.701 66.3501C180.082 64.8252 178.965 62.9306 178.337 60.8181C177.121 56.7451 176.434 52.6853 176.87 48.5793L176.864 48.5727ZM185.859 61.3463C186.328 61.201 186.559 61.1614 186.665 60.9568C186.956 60.5541 187.266 60.0062 187.491 59.5243C190.577 53.7547 192.21 47.3052 194.259 41.0735C195.461 37.3174 195.666 33.2444 195.494 29.1911C195.415 27.8379 195.052 26.3592 194.668 25.0323C194.543 24.4184 194.034 23.8837 193.677 23.3093C191.622 23.5734 190.412 24.5768 189.586 26.0093C188.952 27.1777 188.449 28.4386 187.947 29.6994C185.984 35.4228 185.165 41.4828 184.543 47.6419C184.305 50.5135 184.292 53.418 184.272 56.3226C184.305 57.9664 184.233 59.8214 185.852 61.3463H185.859Z" fill="#A80000"/>
<path d="M185.892 94.5906C184.345 92.0161 184.828 90.4978 184.986 88.9663C185.601 85.0715 187.279 81.7444 189.434 78.886C192.045 75.2025 194.873 71.6708 197.589 68.0664L200.702 63.934C204.126 58.7387 207.391 53.3058 211.125 48.3482C213.729 44.8957 216.762 41.7535 220.153 39.0139C225.493 34.7891 232.987 37.8389 237.997 45.7275C243.734 54.6327 244.024 62.3893 241.414 69.3735C236.616 82.1273 227.548 90.8477 215.54 96.6502C210.246 99.2644 203.98 100.314 196.611 98.4194C193.115 97.5546 189.533 95.9175 185.885 94.5906H185.892ZM227.998 55.0354C227.119 55.3192 226.14 55.5173 225.526 56.118C223.351 57.9004 221.078 59.5969 219.432 61.7754C215.031 67.1753 210.781 72.8128 206.637 78.523C204.423 81.685 202.368 84.847 198.991 86.9001C198.66 87.1179 198.647 87.58 198.191 88.1807C199.486 88.4448 200.445 88.9333 201.211 88.8012C203.505 88.4052 205.791 88.0091 207.88 87.2235C214.7 84.3453 220.153 79.9753 224.871 74.813C228.421 70.7664 229.405 65.2741 229.438 59.2932C229.425 57.9862 229.577 56.6923 228.004 55.0354H227.998Z" fill="#A80000"/>
<path d="M231.011 29.1713C219.683 55.4777 198.627 88.0157 173.605 102.882C157.664 112.434 139.371 113.22 125.095 99.9113C122.643 97.614 120.509 95.1055 118.599 92.4914C117.442 90.9071 117.792 88.689 119.379 87.5404C122.657 85.3091 124.811 88.9663 127.21 90.61C128.076 91.4352 129.609 92.3924 130.581 93.1185C142.662 101.509 155.146 99.8585 167.234 92.2405C182.045 82.8336 193.34 69.4197 204.218 55.5173C211.508 46.0312 218.434 36.0169 224.957 25.9961C227.251 22.5898 232.525 25.3029 231.018 29.1713H231.011Z" fill="black"/>
</g>
<defs>
<clipPath id="clip0_1_33">
<rect width="243" height="128" fill="white"/>
</clipPath>
</defs>
</svg>
